<?xml version="1.0" encoding="utf-8"?>
<!-- Generator: Adobe Illustrator 27.5.0, SVG Export Plug-In . SVG Version: 6.00 Build 0)  -->
<svg version="1.1" xmlns="http://www.w3.org/2000/svg" xmlns:xlink="http://www.w3.org/1999/xlink" x="0px" y="0px"
	 viewBox="0 0 750 500" style="enable-background:new 0 0 750 500;" xml:space="preserve">
<g id="BACKGROUND">
	<rect style="fill:#FFFFFF;" width="auto" height="auto"/>
</g>
<g id="OBJECTS">
	<g>
		<g>
			<rect x="436.112" y="29.685" style="fill:#B8D3FB;" width="67.773" height="51.515"/>
			
				<ellipse transform="matrix(0.1597 -0.9872 0.9872 0.1597 323.2976 495.2599)" style="fill:#477DFF;" cx="452.56" cy="57.728" rx="9.602" ry="9.602"/>
			
				<line style="fill:none;stroke:#2F4BE8;stroke-width:1.1663;stroke-linecap:round;stroke-linejoin:round;stroke-miterlimit:10;" x1="442.958" y1="37.355" x2="463.618" y2="37.355"/>
			
				<line style="fill:none;stroke:#2F4BE8;stroke-width:1.1663;stroke-linecap:round;stroke-linejoin:round;stroke-miterlimit:10;" x1="442.958" y1="41.598" x2="463.618" y2="41.598"/>
			
				<line style="fill:none;stroke:#2F4BE8;stroke-width:1.1663;stroke-linecap:round;stroke-linejoin:round;stroke-miterlimit:10;" x1="442.958" y1="74.445" x2="463.618" y2="74.445"/>
			<rect x="469.998" y="36.633" style="fill:#0A2873;" width="28.357" height="37.812"/>
		</g>
		<g>
			<rect x="242.804" y="47.081" style="fill:#B8D3FB;" width="97.336" height="54.729"/>
			<rect x="242.804" y="47.081" style="fill:#0A2873;" width="97.336" height="14.913"/>
			<g>
				<path style="fill:#F9BA39;" d="M255.92,54.537c0,1.155-0.936,2.091-2.091,2.091s-2.091-0.936-2.091-2.091
					c0-1.155,0.936-2.091,2.091-2.091S255.92,53.382,255.92,54.537z"/>
				<path style="fill:#F9BA39;" d="M267.296,54.537c0,1.155-0.936,2.091-2.091,2.091c-1.155,0-2.091-0.936-2.091-2.091
					c0-1.155,0.936-2.091,2.091-2.091C266.36,52.446,267.296,53.382,267.296,54.537z"/>
				<path style="fill:#F9BA39;" d="M278.673,54.537c0,1.155-0.936,2.091-2.091,2.091s-2.091-0.936-2.091-2.091
					c0-1.155,0.936-2.091,2.091-2.091S278.673,53.382,278.673,54.537z"/>
			</g>
			
				<line style="fill:none;stroke:#2F4BE8;stroke-width:1.1663;stroke-linecap:round;stroke-linejoin:round;stroke-miterlimit:10;" x1="251.737" y1="71.326" x2="280.519" y2="71.326"/>
			
				<line style="fill:none;stroke:#2F4BE8;stroke-width:1.1663;stroke-linecap:round;stroke-linejoin:round;stroke-miterlimit:10;" x1="251.737" y1="76.714" x2="326.883" y2="76.714"/>
			
				<line style="fill:none;stroke:#2F4BE8;stroke-width:1.1663;stroke-linecap:round;stroke-linejoin:round;stroke-miterlimit:10;" x1="251.737" y1="82.102" x2="326.883" y2="82.102"/>
			
				<line style="fill:none;stroke:#2F4BE8;stroke-width:1.1663;stroke-linecap:round;stroke-linejoin:round;stroke-miterlimit:10;" x1="251.737" y1="87.49" x2="326.883" y2="87.49"/>
			
				<line style="fill:none;stroke:#2F4BE8;stroke-width:1.1663;stroke-linecap:round;stroke-linejoin:round;stroke-miterlimit:10;" x1="251.737" y1="92.877" x2="326.883" y2="92.877"/>
		</g>
		<g>
			<rect x="104.047" y="133.776" style="fill:#B8D3FB;" width="81.393" height="72.057"/>
			<g>
				<rect x="115.15" y="149.171" style="fill:#477DFF;" width="25.854" height="41.268"/>
				<g>
					
						<line style="fill:none;stroke:#2F4BE8;stroke-width:1.1663;stroke-linecap:round;stroke-linejoin:round;stroke-miterlimit:10;" x1="148.511" y1="149.171" x2="174.337" y2="149.171"/>
					
						<line style="fill:none;stroke:#2F4BE8;stroke-width:1.1663;stroke-linecap:round;stroke-linejoin:round;stroke-miterlimit:10;" x1="148.511" y1="156.049" x2="174.337" y2="156.049"/>
					
						<line style="fill:none;stroke:#2F4BE8;stroke-width:1.1663;stroke-linecap:round;stroke-linejoin:round;stroke-miterlimit:10;" x1="148.511" y1="162.927" x2="174.337" y2="162.927"/>
					
						<line style="fill:none;stroke:#2F4BE8;stroke-width:1.1663;stroke-linecap:round;stroke-linejoin:round;stroke-miterlimit:10;" x1="148.511" y1="169.805" x2="174.337" y2="169.805"/>
					
						<line style="fill:none;stroke:#2F4BE8;stroke-width:1.1663;stroke-linecap:round;stroke-linejoin:round;stroke-miterlimit:10;" x1="148.511" y1="176.683" x2="174.337" y2="176.683"/>
					
						<line style="fill:none;stroke:#2F4BE8;stroke-width:1.1663;stroke-linecap:round;stroke-linejoin:round;stroke-miterlimit:10;" x1="148.511" y1="183.561" x2="174.337" y2="183.561"/>
					
						<line style="fill:none;stroke:#2F4BE8;stroke-width:1.1663;stroke-linecap:round;stroke-linejoin:round;stroke-miterlimit:10;" x1="148.511" y1="190.439" x2="174.337" y2="190.439"/>
				</g>
			</g>
		</g>
		<linearGradient id="SVGID_1_" gradientUnits="userSpaceOnUse" x1="386.0862" y1="533.8737" x2="386.0862" y2="126.2731">
			<stop  offset="0" style="stop-color:#FFFFFF;stop-opacity:0"/>
			<stop  offset="0.2587" style="stop-color:#E4ECFF;stop-opacity:0.2587"/>
			<stop  offset="0.8121" style="stop-color:#9FBDFF;stop-opacity:0.8121"/>
			<stop  offset="1" style="stop-color:#86ACFF"/>
		</linearGradient>
		<polygon style="fill:url(#SVGID_1_);" points="598.973,446.156 173.199,446.156 208.564,111.165 563.608,111.165 		"/>
		
			<line style="fill:none;stroke:#222F73;stroke-width:2.2686;stroke-linecap:round;stroke-linejoin:round;stroke-miterlimit:10;" x1="237.707" y1="265.758" x2="323.852" y2="265.758"/>
		<g>
			
				<linearGradient id="SVGID_00000072989397170056539630000000721110149066436512_" gradientUnits="userSpaceOnUse" x1="493.3306" y1="332.2939" x2="521.8475" y2="332.2939" gradientTransform="matrix(-0.9794 0.202 0.202 0.9794 1004.0806 -101.133)">
				<stop  offset="0" style="stop-color:#FF3636"/>
				<stop  offset="0.224" style="stop-color:#FF6136"/>
				<stop  offset="0.4481" style="stop-color:#FF8536"/>
				<stop  offset="0.6587" style="stop-color:#FF9E36"/>
				<stop  offset="0.8486" style="stop-color:#FFAE36"/>
				<stop  offset="1" style="stop-color:#FFB336"/>
			</linearGradient>
			<path style="fill:url(#SVGID_00000072989397170056539630000000721110149066436512_);" d="M566.371,355.543
				c0,0-4.748-9.528-2.779-19.429c1.969-9.901,4.845-13.482,6.497-21.807c1.651-8.325,10.831-15.978,10.831-15.978
				s6.215,10.588,4.718,22.28C584.14,332.301,577.917,352.184,566.371,355.543z"/>
			
				<linearGradient id="SVGID_00000047747409513983895620000016169041146354357409_" gradientUnits="userSpaceOnUse" x1="525.4008" y1="340.5102" x2="543.7441" y2="340.5102" gradientTransform="matrix(-0.9794 0.202 0.202 0.9794 1004.0806 -101.133)">
				<stop  offset="0" style="stop-color:#FF3636"/>
				<stop  offset="0.224" style="stop-color:#FF6136"/>
				<stop  offset="0.4481" style="stop-color:#FF8536"/>
				<stop  offset="0.6587" style="stop-color:#FF9E36"/>
				<stop  offset="0.8486" style="stop-color:#FFAE36"/>
				<stop  offset="1" style="stop-color:#FFB336"/>
			</linearGradient>
			<path style="fill:url(#SVGID_00000047747409513983895620000016169041146354357409_);" d="M538.274,317.328
				c0,0-2.187,6.106-0.227,13.696c1.96,7.59,11.072,29.781,20.651,32.677c4.358-9.911,1.727-16.077-0.853-21.127
				c-2.581-5.05-5.903-12.226-8.842-16.724C546.064,321.352,538.274,317.328,538.274,317.328z"/>
			
				<linearGradient id="SVGID_00000018235907365431789610000004874493028785992881_" gradientUnits="userSpaceOnUse" x1="479.3094" y1="365.1452" x2="525.5677" y2="365.1452" gradientTransform="matrix(-0.9794 0.202 0.202 0.9794 1004.0806 -101.133)">
				<stop  offset="0" style="stop-color:#FF3636"/>
				<stop  offset="0.224" style="stop-color:#FF6136"/>
				<stop  offset="0.4481" style="stop-color:#FF8536"/>
				<stop  offset="0.6587" style="stop-color:#FF9E36"/>
				<stop  offset="0.8486" style="stop-color:#FFAE36"/>
				<stop  offset="1" style="stop-color:#FFB336"/>
			</linearGradient>
			<path style="fill:url(#SVGID_00000018235907365431789610000004874493028785992881_);" d="M564.408,369.002
				c0,0,3.685-5.985,9.82-11.235c6.135-5.25,17.596-9.185,22.049-10.15c4.453-0.965,10.176-3.751,10.176-3.751
				s2.312,8.523-10.005,17.172C584.131,369.686,570.151,372.113,564.408,369.002z"/>
			
				<linearGradient id="SVGID_00000052784568515112937380000017059962903074936986_" gradientUnits="userSpaceOnUse" x1="540.1251" y1="352.9867" x2="554.9563" y2="352.9867" gradientTransform="matrix(-0.9794 0.202 0.202 0.9794 1004.0806 -101.133)">
				<stop  offset="0" style="stop-color:#FF3636"/>
				<stop  offset="0.224" style="stop-color:#FF6136"/>
				<stop  offset="0.4481" style="stop-color:#FF8536"/>
				<stop  offset="0.6587" style="stop-color:#FF9E36"/>
				<stop  offset="0.8486" style="stop-color:#FFAE36"/>
				<stop  offset="1" style="stop-color:#FFB336"/>
			</linearGradient>
			<path style="fill:url(#SVGID_00000052784568515112937380000017059962903074936986_);" d="M529.192,336.155
				c0,0-0.985,13.176,5.261,24.17c6.246,10.994,14.54,13.903,14.54,13.903s0.726-5.757-0.686-11.048
				C546.894,357.889,539.511,338.368,529.192,336.155z"/>
			
				<linearGradient id="SVGID_00000160904788440477057970000010570990282386554513_" gradientUnits="userSpaceOnUse" x1="490.8307" y1="406.3003" x2="531.7079" y2="406.3003" gradientTransform="matrix(-0.9902 0.1393 0.1393 0.9902 1029.689 -95.0681)">
				<stop  offset="0" style="stop-color:#FF3636"/>
				<stop  offset="0.224" style="stop-color:#FF6136"/>
				<stop  offset="0.4481" style="stop-color:#FF8536"/>
				<stop  offset="0.6587" style="stop-color:#FF9E36"/>
				<stop  offset="0.8486" style="stop-color:#FFAE36"/>
				<stop  offset="1" style="stop-color:#FFB336"/>
			</linearGradient>
			<path style="fill:url(#SVGID_00000160904788440477057970000010570990282386554513_);" d="M559.974,382.632
				c0,0,5.256-6.81,11.019-8.879c5.763-2.069,22.614-5.28,28.58-3.056c-6.065,11.924-15.114,13.309-22.905,15.269
				C568.876,387.926,561.845,384.167,559.974,382.632z"/>
			<path style="fill:none;stroke:#223B52;stroke-width:1.2548;stroke-miterlimit:10;" d="M578.429,316.066
				c0,0-6.876,52.796-45.25,84.082"/>
			<path style="fill:none;stroke:#223B52;stroke-width:1.2548;stroke-miterlimit:10;" d="M542.086,325.254
				c0,0,15.367,32.534,17.938,42.674"/>
			<path style="fill:none;stroke:#223B52;stroke-width:1.2548;stroke-miterlimit:10;" d="M557.951,371.412
				c0,0,21.864-7.449,40.806-19.45"/>
			<path style="fill:none;stroke:#223B52;stroke-width:1.2548;stroke-miterlimit:10;" d="M533.004,343.316
				c0,0,11.391,24.032,19.036,35.932"/>
			<path style="fill:none;stroke:#223B52;stroke-width:1.2548;stroke-miterlimit:10;" d="M595.356,373.453
				c0,0-27.082,11.206-45.518,9.195"/>
		</g>
		<g>
			
				<linearGradient id="SVGID_00000008139478292046026430000009019105814808513682_" gradientUnits="userSpaceOnUse" x1="163.3962" y1="333.4074" x2="188.3063" y2="333.4074">
				<stop  offset="0" style="stop-color:#FF3636"/>
				<stop  offset="0.224" style="stop-color:#FF6136"/>
				<stop  offset="0.4481" style="stop-color:#FF8536"/>
				<stop  offset="0.6587" style="stop-color:#FF9E36"/>
				<stop  offset="0.8486" style="stop-color:#FFAE36"/>
				<stop  offset="1" style="stop-color:#FFB336"/>
			</linearGradient>
			<path style="fill:url(#SVGID_00000008139478292046026430000009019105814808513682_);" d="M187.502,356.599
				c0,0,2.382-8.989-1.05-17.112c-3.432-8.123-6.524-10.68-9.405-17.511c-2.881-6.831-12.086-11.759-12.086-11.759
				s-3.449,10.155-0.105,19.894C168.199,339.848,177.03,355.762,187.502,356.599z"/>
			
				<linearGradient id="SVGID_00000026846122966355903520000014215341241677275057_" gradientUnits="userSpaceOnUse" x1="191.4102" y1="340.5857" x2="207.4349" y2="340.5857">
				<stop  offset="0" style="stop-color:#FF3636"/>
				<stop  offset="0.224" style="stop-color:#FF6136"/>
				<stop  offset="0.4481" style="stop-color:#FF8536"/>
				<stop  offset="0.6587" style="stop-color:#FF9E36"/>
				<stop  offset="0.8486" style="stop-color:#FFAE36"/>
				<stop  offset="1" style="stop-color:#FFB336"/>
			</linearGradient>
			<path style="fill:url(#SVGID_00000026846122966355903520000014215341241677275057_);" d="M204.798,318.947
				c0,0,2.949,4.838,2.61,11.678c-0.338,6.839-4.218,27.432-11.903,31.6c-5.477-7.711-4.314-13.45-2.997-18.226
				c1.317-4.776,2.893-11.501,4.614-15.868C198.843,323.763,204.798,318.947,204.798,318.947z"/>
			
				<linearGradient id="SVGID_00000155144756418155997030000013967325285141992863_" gradientUnits="userSpaceOnUse" x1="151.1468" y1="362.1045" x2="191.5554" y2="362.1045">
				<stop  offset="0" style="stop-color:#FF3636"/>
				<stop  offset="0.224" style="stop-color:#FF6136"/>
				<stop  offset="0.4481" style="stop-color:#FF8536"/>
				<stop  offset="0.6587" style="stop-color:#FF9E36"/>
				<stop  offset="0.8486" style="stop-color:#FFAE36"/>
				<stop  offset="1" style="stop-color:#FFB336"/>
			</linearGradient>
			<path style="fill:url(#SVGID_00000155144756418155997030000013967325285141992863_);" d="M191.555,367.766
				c0,0-4.208-4.47-10.384-7.88c-6.175-3.409-16.675-4.754-20.655-4.794c-3.98-0.04-9.368-1.414-9.368-1.414
				s-0.475,7.7,11.589,12.926C174.802,371.831,187.191,371.441,191.555,367.766z"/>
			
				<linearGradient id="SVGID_00000124883019457158437170000015107553989351464363_" gradientUnits="userSpaceOnUse" x1="204.2723" y1="351.4849" x2="217.2288" y2="351.4849">
				<stop  offset="0" style="stop-color:#FF3636"/>
				<stop  offset="0.224" style="stop-color:#FF6136"/>
				<stop  offset="0.4481" style="stop-color:#FF8536"/>
				<stop  offset="0.6587" style="stop-color:#FF9E36"/>
				<stop  offset="0.8486" style="stop-color:#FFAE36"/>
				<stop  offset="1" style="stop-color:#FFB336"/>
			</linearGradient>
			<path style="fill:url(#SVGID_00000124883019457158437170000015107553989351464363_);" d="M215.889,333.452
				c0,0,3.167,11.099-0.237,21.606c-3.404,10.508-9.987,14.46-9.987,14.46s-1.637-4.798-1.362-9.573
				C204.579,355.169,207.452,337.165,215.889,333.452z"/>
			
				<linearGradient id="SVGID_00000172408530708478830460000008097304238413840829_" gradientUnits="userSpaceOnUse" x1="161.36" y1="379.0719" x2="197.065" y2="379.0719" gradientTransform="matrix(0.998 -0.0636 0.0636 0.998 -23.1005 11.7069)">
				<stop  offset="0" style="stop-color:#FF3636"/>
				<stop  offset="0.224" style="stop-color:#FF6136"/>
				<stop  offset="0.4481" style="stop-color:#FF8536"/>
				<stop  offset="0.6587" style="stop-color:#FF9E36"/>
				<stop  offset="0.8486" style="stop-color:#FFAE36"/>
				<stop  offset="1" style="stop-color:#FFB336"/>
			</linearGradient>
			<path style="fill:url(#SVGID_00000172408530708478830460000008097304238413840829_);" d="M197.753,378.645
				c0,0-5.698-4.898-10.994-5.652c-5.296-0.754-20.279-0.528-24.99,2.427c7.293,9.132,15.279,8.72,22.29,9.022
				C191.071,384.745,196.424,380.289,197.753,378.645z"/>
			<path style="fill:none;stroke:#223B52;stroke-width:1.0961;stroke-miterlimit:10;" d="M170.221,324.951
				c0,0,15.197,43.956,53.547,63.953"/>
			<path style="fill:none;stroke:#223B52;stroke-width:1.0961;stroke-miterlimit:10;" d="M202.935,326.401
				c0,0-7.408,30.545-7.818,39.674"/>
			<path style="fill:none;stroke:#223B52;stroke-width:1.0961;stroke-miterlimit:10;" d="M197.505,368.689
				c0,0-20.019-2.515-38.343-9.441"/>
			<path style="fill:none;stroke:#223B52;stroke-width:1.0961;stroke-miterlimit:10;" d="M213.891,340.251
				c0,0-5.505,22.57-9.947,34.099"/>
			<path style="fill:none;stroke:#223B52;stroke-width:1.0961;stroke-miterlimit:10;" d="M165.863,377.034
				c0,0,25.147,4.809,40.565-0.163"/>
		</g>
		
			<linearGradient id="SVGID_00000098187489596308547660000012279877695437505189_" gradientUnits="userSpaceOnUse" x1="123.7116" y1="401.4262" x2="436.6397" y2="401.4262">
			<stop  offset="0" style="stop-color:#B3EBCD"/>
			<stop  offset="0.122" style="stop-color:#ADE7CC"/>
			<stop  offset="0.2891" style="stop-color:#9BDBCA"/>
			<stop  offset="0.4821" style="stop-color:#7EC7C6"/>
			<stop  offset="0.693" style="stop-color:#56ACC1"/>
			<stop  offset="0.8412" style="stop-color:#3696BD"/>
		</linearGradient>
		<path style="fill:url(#SVGID_00000098187489596308547660000012279877695437505189_);" d="M436.64,446.156
			c0,0-18.54-36.267-38.27-42.514c-19.73-6.247-29.014-16.09-42-19.493c-12.986-3.403-39.427-7.184-55.509-15.88
			c-16.082-8.696-31.773-13.276-50.394-10.986c-18.621,2.29-31.476,19.367-48.869,22.928c-17.392,3.56-32.286,7.814-39.018,20.244
			c-6.732,12.43-38.491,27.176-38.87,45.702H436.64z"/>
		
			<linearGradient id="SVGID_00000038385107807565060930000005404748282409841552_" gradientUnits="userSpaceOnUse" x1="359.9345" y1="404.2531" x2="619.5818" y2="404.2531">
			<stop  offset="0" style="stop-color:#B3EBCD"/>
			<stop  offset="0.122" style="stop-color:#ADE7CC"/>
			<stop  offset="0.2891" style="stop-color:#9BDBCA"/>
			<stop  offset="0.4821" style="stop-color:#7EC7C6"/>
			<stop  offset="0.693" style="stop-color:#56ACC1"/>
			<stop  offset="0.8412" style="stop-color:#3696BD"/>
		</linearGradient>
		<path style="fill:url(#SVGID_00000038385107807565060930000005404748282409841552_);" d="M619.582,446.156H359.934
			c0,0,9.061-27.185,35.955-28.535c26.894-1.35,24.286-24.824,50.828-29.432c26.542-4.607,26.579-27.577,61.156-25.733
			c34.577,1.843,22.667,17.296,42.517,25.733c19.85,8.437,28.091,12.995,32.761,29.432
			C587.822,434.057,613.91,427.629,619.582,446.156z"/>
		
			<line style="fill:none;stroke:#3D5413;stroke-width:1.6252;stroke-miterlimit:10;" x1="104.047" y1="446.156" x2="638.549" y2="446.156"/>
		<g>
			<g>
				<polygon style="fill:#7A4A0F;" points="501.246,334.807 494.239,334.807 504.532,306.357 511.539,306.357 				"/>
				<polygon style="fill:#7A4A0F;" points="475.492,334.807 468.485,334.807 478.778,306.357 485.785,306.357 				"/>
			</g>
			<path style="fill:#F9BA39;" d="M508.367,345.866h-88.648c-2.693,0-4.875-2.183-4.875-4.875v-0.721
				c0-11.161,9.048-20.208,20.208-20.208h57.982c11.161,0,20.208,9.048,20.208,20.208v0.721
				C513.243,343.684,511.06,345.866,508.367,345.866z"/>
			<g>
				<polygon style="fill:#7A4A0F;" points="522.945,446.156 514.438,446.156 499.031,341.613 507.538,341.613 				"/>
				<polygon style="fill:#7A4A0F;" points="418.379,446.156 426.886,446.156 442.294,341.613 433.787,341.613 				"/>
			</g>
			<g>
				
					<linearGradient id="SVGID_00000069365180922086188000000011284965958646668935_" gradientUnits="userSpaceOnUse" x1="436.9342" y1="375.3223" x2="436.9342" y2="330.8425">
					<stop  offset="0" style="stop-color:#000000;stop-opacity:0"/>
					<stop  offset="1" style="stop-color:#000000"/>
				</linearGradient>
				<path style="fill:url(#SVGID_00000069365180922086188000000011284965958646668935_);" d="M442.294,341.613h-8.507l-2.212,15.011
					c2.297,0.137,5.131,0.345,8.41,0.659L442.294,341.613z"/>
				
					<linearGradient id="SVGID_00000068651397819908160930000005755608184875773628_" gradientUnits="userSpaceOnUse" x1="505.7524" y1="375.3222" x2="505.7524" y2="330.8424">
					<stop  offset="0" style="stop-color:#000000;stop-opacity:0"/>
					<stop  offset="1" style="stop-color:#000000"/>
				</linearGradient>
				<path style="fill:url(#SVGID_00000068651397819908160930000005755608184875773628_);" d="M507.538,341.613h-8.507l4.403,29.874
					c3.01,1.122,6.028,2.327,9.041,3.621L507.538,341.613z"/>
			</g>
			<g>
				<polygon style="fill:#613B0C;" points="508.421,446.156 499.913,446.156 484.506,341.613 493.013,341.613 				"/>
				<polygon style="fill:#613B0C;" points="403.855,446.156 412.362,446.156 427.769,341.613 419.262,341.613 				"/>
			</g>
			<g>
				
					<linearGradient id="SVGID_00000000926202113376416620000010076154004380010671_" gradientUnits="userSpaceOnUse" x1="422.4096" y1="375.3223" x2="422.4096" y2="330.8425">
					<stop  offset="0" style="stop-color:#000000;stop-opacity:0"/>
					<stop  offset="1" style="stop-color:#000000"/>
				</linearGradient>
				<path style="fill:url(#SVGID_00000000926202113376416620000010076154004380010671_);" d="M427.769,341.613h-8.507l-2.212,15.011
					c2.296,0.137,5.131,0.345,8.41,0.659L427.769,341.613z"/>
				
					<linearGradient id="SVGID_00000163762988798992122010000011541158469807822762_" gradientUnits="userSpaceOnUse" x1="491.2278" y1="375.3222" x2="491.2278" y2="330.8424">
					<stop  offset="0" style="stop-color:#000000;stop-opacity:0"/>
					<stop  offset="1" style="stop-color:#000000"/>
				</linearGradient>
				<path style="fill:url(#SVGID_00000163762988798992122010000011541158469807822762_);" d="M493.013,341.613h-8.507l4.403,29.874
					c3.01,1.122,6.028,2.327,9.041,3.621L493.013,341.613z"/>
			</g>
			<path style="fill:#BA7E34;" d="M507.646,337.501H420.44c-2.057,0-3.835-1.122-4.808-2.775c-0.503,1.764-0.789,3.619-0.789,5.544
				v0.721c0,2.693,2.183,4.875,4.875,4.875h88.648c2.693,0,4.875-2.183,4.875-4.875v-0.721c0-1.925-0.286-3.78-0.789-5.544
				C511.481,336.379,509.703,337.501,507.646,337.501z"/>
			<path style="fill:#F9BA39;" d="M510.787,314.595h-36.769c-4.916,0-7.43-3.985-5.616-8.901l33.769-91.508
				c1.814-4.916,7.27-8.901,12.186-8.901h36.769c4.916,0,7.43,3.985,5.616,8.901l-33.769,91.508
				C521.158,310.61,515.703,314.595,510.787,314.595z"/>
			<path style="fill:#BA7E34;" d="M551.125,205.286h-9.683c4.916,0,7.43,3.985,5.616,8.901l-33.769,91.508
				c-1.814,4.916-7.27,8.901-12.186,8.901h9.683c4.916,0,10.372-3.985,12.186-8.901l33.769-91.508
				C558.555,209.271,556.041,205.286,551.125,205.286z"/>
		</g>
		<g>
			<path style="fill:#FF8282;" d="M353.876,428.527l-6.664,19.992c0,0-21.126,0.851-22.686,0c-1.56-0.851,10.35-4.537,10.35-4.537
				l4.112-4.254l4.395-11.201H353.876z"/>
			<path style="fill:#FF8282;" d="M382.162,428.527l3.762,19.992c0,0-21.126,0.851-22.686,0c-1.56-0.851,6.874-3.398,6.874-3.398
				l3.472-5.393l-1.914-11.201H382.162z"/>
			<path style="fill:#3446AD;" d="M437.671,293.122l-57.854,7.592c-15.212,1.996-25.955,15.906-24.042,31.129l12.563,99.945h19.992
				c0,0,1.276-5.104-0.425-8.082c-1.701-2.978,2.552-10.492,0.567-15.596c-1.985-5.104,1.276-10.067-0.851-16.447
				c-2.127-6.38-0.709-56.856-0.709-56.856s72.348-1.418,85.161-7.656c12.813-6.239,10.242-32.231,10.242-32.231L437.671,293.122z"
				/>
			
				<linearGradient id="SVGID_00000083053438320553319950000009595015099866602636_" gradientUnits="userSpaceOnUse" x1="462.385" y1="320.9398" x2="293.7548" y2="345.327">
				<stop  offset="0" style="stop-color:#000000;stop-opacity:0"/>
				<stop  offset="1" style="stop-color:#000000"/>
			</linearGradient>
			<path style="opacity:0.44;fill:url(#SVGID_00000083053438320553319950000009595015099866602636_);" d="M482.315,294.92
				l-44.644-1.797l-57.854,7.592c-6.895,0.905-12.865,4.262-17.161,9.074c5.909,3.645,12.973,13.317,10.427,39.008
				c-0.988,9.97,4.469,14.373,13.371,15.293c0.045-14.552,0.459-29.282,0.459-29.282s72.348-1.418,85.161-7.656
				C484.886,320.912,482.315,294.92,482.315,294.92z"/>
			<path style="fill:#2F4BE8;" d="M496.701,298.699c0,0-1.512,36.864-29.491,36.864c-27.979,0-54.824,0-54.824,0
				s-3.214,3.214-5.861,1.323c0,0-20.039,42.346-23.253,47.64c-3.214,5.293-4.159,14.746-8.129,20.795
				c-3.97,6.049-7.562,6.428-8.696,13.044c-1.134,6.617-3.592,6.239-4.159,8.318c-0.567,2.079-1.891,5.104-1.891,5.104h-25.521
				l38.057-107.53c3.905-11.033,13.698-18.922,25.31-20.387l59.325-7.487L496.701,298.699z"/>
			
				<path style="fill:none;stroke:#78BBFF;stroke-width:0.5671;stroke-linecap:round;stroke-linejoin:round;stroke-miterlimit:10;" d="
				M410.023,323.039c0,0-0.314,6.366-2.694,11.768"/>
			
				<line style="fill:none;stroke:#78BBFF;stroke-width:0.5671;stroke-linecap:round;stroke-linejoin:round;stroke-miterlimit:10;" x1="416.829" y1="324.599" x2="412.859" y2="333.673"/>
			
				<path style="fill:none;stroke:#78BBFF;stroke-width:0.5671;stroke-linecap:round;stroke-linejoin:round;stroke-miterlimit:10;" d="
				M373.083,399.345c0,0-5.168,4.633-11.583,7.484"/>
			
				<line style="fill:none;stroke:#78BBFF;stroke-width:0.5671;stroke-linecap:round;stroke-linejoin:round;stroke-miterlimit:10;" x1="364.886" y1="411.106" x2="354.729" y2="418.769"/>
			
				<line style="fill:none;stroke:#78BBFF;stroke-width:0.5671;stroke-linecap:round;stroke-linejoin:round;stroke-miterlimit:10;" x1="385.069" y1="400.454" x2="381.95" y2="406.83"/>
			
				<line style="fill:none;stroke:#78BBFF;stroke-width:0.5671;stroke-linecap:round;stroke-linejoin:round;stroke-miterlimit:10;" x1="383.509" y1="414.938" x2="378.83" y2="420.304"/>
			
				<linearGradient id="SVGID_00000136370593422415108300000001130084847375244711_" gradientUnits="userSpaceOnUse" x1="466.7416" y1="330.1714" x2="465.8908" y2="310.6049">
				<stop  offset="0" style="stop-color:#000000;stop-opacity:0"/>
				<stop  offset="1" style="stop-color:#000000"/>
			</linearGradient>
			<path style="opacity:0.44;fill:url(#SVGID_00000136370593422415108300000001130084847375244711_);" d="M482.485,297.858
				c-0.061-1.817-0.17-2.938-0.17-2.938l-44.644-1.797l-3.847,0.505c8.054,5.527,34.338,22.012,59.616,20.916
				c2.941-8.276,3.26-15.844,3.26-15.844L482.485,297.858z"/>
			<path style="fill:#59301E;" d="M324.527,448.519c1.56,0.851,22.686,0,22.686,0l1.751-5.253c-2.988,0.292-6.272,0.311-6.501-0.985
				c-0.425-2.41-3.474-2.552-3.474-2.552l-4.112,4.254C334.877,443.982,322.967,447.668,324.527,448.519z"/>
			<path style="fill:#59301E;" d="M363.239,448.519c1.56,0.851,22.686,0,22.686,0l-0.986-5.241c-2.988,0.292-4.85-0.606-5.753-1.564
				c-2.339-2.481-5.6-1.985-5.6-1.985l-3.812,5.51C369.773,445.238,361.679,447.668,363.239,448.519z"/>
			<path style="fill:#FF8282;" d="M396.483,232.935l-7.373-5.246c0,0,0.567-3.332-0.709-6.664c-1.276-3.332-3.261-6.877-4.466-6.38
				c-1.205,0.496,0.78,3.686,0.354,6.38c-0.362,2.294-4.343,3.156-7.19-0.205c-1.701-2.009-1.955-4.071-2.026-6.222
				c-0.071-2.151-1.205-2.434-1.843-0.591c-0.638,1.843-0.284,5.955,1.985,8.223c-2.269-0.851-3.474-2.198-4.254-4.75
				c-0.78-2.552-1.701-2.977-2.34-2.339c-0.638,0.638,1.063,7.089,4.466,8.862c-3.261-0.78-4.608-2.056-5.813-3.403
				c-1.205-1.347-1.772-0.355-1.56,0.922c0.213,1.276,1.347,3.757,5.317,4.608c-2.269,0.284-5.317-1.701-6.097-1.205
				c-0.78,0.496,3.048,3.261,7.018,3.828c2.056,3.048,6.735,5.317,10.988,5.033c4.962,4.537,18.344,13.168,18.344,13.168
				L396.483,232.935z"/>
			
				<path style="fill:none;stroke:#D94D4D;stroke-width:0.5671;stroke-linecap:round;stroke-linejoin:round;stroke-miterlimit:10;" d="
				M374.648,227.476c0,0,5.246-2.142,10.917,1.694"/>
			<path style="fill:#D94D4D;" d="M401.287,246.953l-4.804-14.018l-5.637-4.011l-1.738,9.717
				C394.741,242.731,401.287,246.953,401.287,246.953z"/>
			<path style="fill:#5F8024;" d="M470.093,205.286c-7.42,0.213-18.385,10.706-22.26,14.486c-3.875,3.781-17.96,17.77-17.96,17.77
				s-3.214-1.134-3.308,0.567c-8.602-2.552-30.815-7.089-30.815-7.089l-5.766,14.746l34.32,16.176
				c6.235,2.939,13.603,2.043,18.952-2.304l22.536-18.315L470.093,205.286z"/>
			
				<line style="fill:none;stroke:#88B834;stroke-width:0.5671;stroke-linecap:round;stroke-linejoin:round;stroke-miterlimit:10;" x1="430.511" y1="238.181" x2="437.033" y2="242.552"/>
			
				<path style="fill:none;stroke:#88B834;stroke-width:0.5671;stroke-linecap:round;stroke-linejoin:round;stroke-miterlimit:10;" d="
				M427.321,239.161c0,0,4.537,5.258,5.317,10.434"/>
			
				<linearGradient id="SVGID_00000000944315895732227770000006262466449893282470_" gradientUnits="userSpaceOnUse" x1="436.6396" y1="234.1237" x2="470.0929" y2="234.1237">
				<stop  offset="0" style="stop-color:#000000;stop-opacity:0"/>
				<stop  offset="1" style="stop-color:#000000"/>
			</linearGradient>
			<path style="opacity:0.44;fill:url(#SVGID_00000000944315895732227770000006262466449893282470_);" d="M455.166,213.14
				c1.008,6.546-2.5,18.189-5.727,23.836c-3.861,6.758-14.425,17.715-12.587,25.986c2.297-0.653,4.482-1.762,6.404-3.324
				l22.536-18.314l4.301-36.038C465.626,205.414,459.882,209.268,455.166,213.14z"/>
			<path style="fill:#222F73;" d="M480.193,185.385c0,0-7.65-3.577-5.889-9.742c1.761-6.164,6.549-1.596,13.429-1.211
				c6.88,0.385,15.85,0.771,17.777,8.366s-9.576,18.822-9.576,18.822S478.927,193.585,480.193,185.385z"/>
			<path style="fill:#FF8282;" d="M483.65,181.945c1.694,1.258,4.362,2.479,7.947,1.813c-1.796,3.45-3.403,5.624-1.701,8.129
				c1.229-3.072,2.694-4.254,4.064-3.45c1.371,0.803-0.709,6.569-3.781,5.86c0.803,4.395,5.435,7.278,5.435,7.278l-2.978,11.154
				l-14.793-0.284l4.584-13.044c0,0-7.137-0.331-6.711-3.143c0.425-2.812,1.607-6.782,1.607-6.782l-1.625-0.567
				c0,0,1.956-1.182,2.618-2.694c0.297-0.68,0.967-2.047,1.614-3.346C480.622,181.482,482.405,181.02,483.65,181.945z"/>
			<path style="fill:#D94D4D;" d="M482.428,199.402c3.734,0.331,8.27-0.708,8.27-0.708s-0.682,5.098-9.722,4.84
				C481.724,201.406,482.428,199.402,482.428,199.402z"/>
			<path style="fill:#5F8024;" d="M482.428,209.564c0,0,2.174-2.08,3.875-4.348c8.254,0.317,11.154,0.473,11.154,0.473l-0.945,2.458
				l10.182,6.045c3.094,1.837,4.948,5.201,4.841,8.797c-0.384,12.833-2.211,44.29-10.863,69.661c0,0,5.577,9.452-3.639,9.452
				c-9.216,0-47.215-0.756-63.662-9.452c0,0,15.313-33.65,19.472-48.018c3.92-13.541,4.985-24.563,13.641-37.102
				c1.002-1.452,2.666-2.314,4.43-2.314h4.786l0.76-1.958l4.28,0.953L482.428,209.564z"/>
			
				<path style="fill:none;stroke:#304012;stroke-width:0.5671;stroke-linecap:round;stroke-linejoin:round;stroke-miterlimit:10;" d="
				M482.428,209.564l-1.891,2.363c0,0-7.751,20.417-11.815,31.004c-4.065,10.587-10.965,32.611-10.965,32.611"/>
			
				<polyline style="fill:none;stroke:#304012;stroke-width:0.5671;stroke-linecap:round;stroke-linejoin:round;stroke-miterlimit:10;" points="
				486.54,206.161 485.656,214.432 496.512,208.146 			"/>
			
				<polyline style="fill:none;stroke:#304012;stroke-width:0.5671;stroke-linecap:round;stroke-linejoin:round;stroke-miterlimit:10;" points="
				475.699,205.216 474.299,209.8 480.02,209.346 			"/>
			
				<line style="fill:none;stroke:#304012;stroke-width:0.5671;stroke-linecap:round;stroke-linejoin:round;stroke-miterlimit:10;" x1="477.135" y1="204.412" x2="480.976" y2="210.982"/>
			
				<linearGradient id="SVGID_00000060737785979121230810000005298005164121473447_" gradientUnits="userSpaceOnUse" x1="433.3705" y1="260.7008" x2="510.7751" y2="260.7008">
				<stop  offset="0" style="stop-color:#000000;stop-opacity:0"/>
				<stop  offset="1" style="stop-color:#000000"/>
			</linearGradient>
			<path style="opacity:0.44;fill:url(#SVGID_00000060737785979121230810000005298005164121473447_);" d="M494.244,219.299
				c0,0-22.502,25.471-46.601,39.919c-6.033,15.322-14.272,33.431-14.272,33.431c16.447,8.696,54.446,9.452,63.662,9.452
				c9.216,0,3.639-9.452,3.639-9.452c6.27-18.384,8.954-39.958,10.104-55.332L494.244,219.299z"/>
			<path style="fill:#88B834;" d="M395.75,231.02l-5.766,14.746l3.257,1.535l6.018-15.552
				C397.101,231.296,395.75,231.02,395.75,231.02z"/>
			<path style="fill:#FF8282;" d="M425.903,281.449l-19.614,5.104c0,0-7.42-0.851-10.681,0.425
				c-3.261,1.276-5.057,4.348-5.057,4.348h36.25L425.903,281.449z"/>
			<polygon style="fill:#D94D4D;" points="422.537,291.326 426.801,291.326 425.903,281.449 417.572,283.617 			"/>
			<path style="fill:#5F8024;" d="M499.154,213.376c2.079-1.204,4.652-1.238,6.751-0.068c3.998,2.229,10.308,7.081,10.741,15.657
				c0.469,9.27-16.242,41.306-25.143,57.655c-3.28,6.025-9.591,9.764-16.45,9.764h-48.44l-1.914-16.164l43.174-10.067
				c0,0,15.376-32.955,19.708-43.103C490.897,219.28,495.843,215.293,499.154,213.376z"/>
			
				<line style="fill:none;stroke:#88B834;stroke-width:0.5671;stroke-linecap:round;stroke-linejoin:round;stroke-miterlimit:10;" x1="470.677" y1="270.72" x2="477.702" y2="273.934"/>
			
				<line style="fill:none;stroke:#88B834;stroke-width:0.5671;stroke-linecap:round;stroke-linejoin:round;stroke-miterlimit:10;" x1="468.817" y1="272.327" x2="472.455" y2="276.959"/>
			<polygon style="fill:#88B834;" points="428.915,279.237 424.698,280.22 426.612,296.384 431.316,296.384 			"/>
			
				<path style="fill:none;stroke:#88B834;stroke-width:0.5671;stroke-linecap:round;stroke-linejoin:round;stroke-miterlimit:10;" d="
				M488.907,224.286c0,0,3.621-7.877,8.589-9.854"/>
		</g>
		<g>
			
				<linearGradient id="SVGID_00000055679465590482863900000007374398422368250555_" gradientUnits="userSpaceOnUse" x1="141.0037" y1="246.9527" x2="253.6756" y2="246.9527">
				<stop  offset="0" style="stop-color:#000000;stop-opacity:0"/>
				<stop  offset="1" style="stop-color:#000000"/>
			</linearGradient>
			
				<rect x="141.004" y="184.828" style="opacity:0.44;fill:url(#SVGID_00000055679465590482863900000007374398422368250555_);" width="112.672" height="124.25"/>
			<rect x="136.29" y="180.538" style="fill:#F9BA39;" width="112.672" height="124.25"/>
			<g>
				<path style="fill:#FF8282;" d="M266.901,246.553l1.252-3.703c0,0-0.573-1.982-0.61-5.538c-0.037-3.556-1.029-9.736,0.314-9.643
					c1.344,0.093,0.959,6.32,2.359,5.944c1.4-0.377,1.522-4.869,1.522-4.869s0.402-7.836,1.389-7.72
					c0.987,0.116-0.46,9.348,0.517,9.606c0.977,0.257,2.206-9.938,3.096-9.781c0.889,0.157-1.472,10.273-0.74,10.656
					c0.731,0.382,3.09-7.65,4.154-7.292c1.065,0.358-3.186,8.354-2.693,8.767c0.492,0.413,3.005-4.387,3.831-3.998
					c0.826,0.389-3.053,5.757-3.053,5.757s-2.115,6.581-4.224,9.656l-1.536,6.431L266.901,246.553z"/>
				<path style="fill:#59301E;" d="M203.041,207.211l0.922-7.16c0,0,3.048-1.985,2.269-5.813c-0.78-3.828-8.507-1.772-8.507-1.772
					s-4.183-5.104-10.421-2.765c-6.239,2.339-6.239,8.791-6.239,8.791s-4.041,0.284-5.104,4.608
					c-1.063,4.324,2.481,7.231,4.254,8.153c-0.284,3.048,2.082,5.586,5.388,6.168c0.851,3.119,3.97,5.884,3.97,5.884
					L203.041,207.211z"/>
				<path style="fill:#FF8282;" d="M194.675,202.249c0,0,3.403-0.425,5.175-1.63c1.489,2.056,5.104,7.16,5.104,7.16l-1.701,1.489
					c0,0,3.97,9.925-1.489,11.13c-0.213,2.765-0.354,9.712-0.354,9.712l-14.958-1.701l3.261-13.824c0,0-1.843-0.496-2.269-2.198
					c-0.425-1.701-1.063-3.899,0.638-3.828c1.701,0.071,2.637,4.183,4.544,4.466c-0.29-2.978-0.858-5.104-0.858-5.104
					S195.171,205.794,194.675,202.249z"/>
				<path style="fill:#D94D4D;" d="M201.764,220.397c-3.096,1.016-6.924-1.678-7.869-3.237c-0.756,3.261,3.664,7.232,7.669,7.373
					L201.764,220.397z"/>
				<path style="fill:#354552;" d="M184.065,227.747c0,0,1.659-2.159,3.004-1.954c1.533,1.481,10.201,2.946,14.398,1.954
					c1.598,0.756,2.307,1.796,2.307,1.796s15.36,1.418,23.016,7.231s23.678,38.282,23.678,38.282l15.171-29.775l7.798,5.137
					l-0.851,3.087c0,0,1.56,4.537-0.993,16.163c-2.552,11.626-5.955,41.685-16.872,44.662c-10.917,2.977-19.425-4.254-27.932-21.41
					l-0.993,11.867h-64.938l-6.947-48.164l10.917-27.932C164.829,228.692,174.486,227.745,184.065,227.747z"/>
				
					<linearGradient id="SVGID_00000027563105523742015970000011712559886550716035_" gradientUnits="userSpaceOnUse" x1="197.8243" y1="318.6751" x2="161.1492" y2="252.3196">
					<stop  offset="0" style="stop-color:#000000;stop-opacity:0"/>
					<stop  offset="1" style="stop-color:#000000"/>
				</linearGradient>
				<path style="opacity:0.44;fill:url(#SVGID_00000027563105523742015970000011712559886550716035_);" d="M219.305,304.788
					c-4.171-11.07-40.23-39.88-43.541-51.993c-3.527-12.902-6.86-16.305-6.86-16.305l-13.179,15.495l-1.813,4.638l6.947,48.164
					H219.305z"/>
				
					<line style="fill:none;stroke:#66869E;stroke-width:0.5671;stroke-linecap:round;stroke-linejoin:round;stroke-miterlimit:10;" x1="272.586" y1="253.504" x2="265.71" y2="248.896"/>
				
					<linearGradient id="SVGID_00000052794482491154724310000000513095307310920589_" gradientUnits="userSpaceOnUse" x1="255.7109" y1="292.0608" x2="227.921" y2="268.0519">
					<stop  offset="0" style="stop-color:#000000;stop-opacity:0"/>
					<stop  offset="1" style="stop-color:#000000"/>
				</linearGradient>
				<path style="opacity:0.44;fill:url(#SVGID_00000052794482491154724310000000513095307310920589_);" d="M231.633,301.585
					c4.947-12.785,9.86-31.921,11.833-39.936c-5.278-9.668-12.326-21.573-16.676-24.875c-1.192-0.905-2.57-1.703-4.049-2.406
					c7.435,9.221,5.041,43.382,4.049,58.553C228.399,296.165,230.008,299.052,231.633,301.585z"/>
				
					<path style="fill:none;stroke:#66869E;stroke-width:0.5671;stroke-linecap:round;stroke-linejoin:round;stroke-miterlimit:10;" d="
					M250.468,275.056c0,0-3.545,6.191-5.057,9.594"/>
				
					<path style="fill:none;stroke:#66869E;stroke-width:0.5671;stroke-linecap:round;stroke-linejoin:round;stroke-miterlimit:10;" d="
					M257.51,304.216c0,0-1.985,3.592-7.042,5.01"/>
				
					<path style="fill:none;stroke:#D94D4D;stroke-width:0.5671;stroke-linecap:round;stroke-linejoin:round;stroke-miterlimit:10;" d="
					M271.666,233.022c0,0,1.749,5.435,0.425,9.641"/>
				
					<path style="fill:none;stroke:#66869E;stroke-width:0.5671;stroke-linecap:round;stroke-linejoin:round;stroke-miterlimit:10;" d="
					M184.538,228.692c3.616,3.686,15.1,5.033,18.645,1.843"/>
				<path style="fill:#78BBFF;" d="M227.09,248.892c-1.025,1.617-1.974,2.942-2.763,3.971l-7.981-18.496l-18.496,7.981
					c1.03,0.789,2.355,1.737,3.971,2.763c4.9,3.108,4.808,10.393-1.667,13.187c-6.475,2.794-11.839-2.137-10.738-7.834
					c0.363-1.88,0.582-3.495,0.714-4.785l-18.496,7.982l19.294,44.711l44.711-19.294l-7.981-18.496
					c1.29,0.132,2.905,0.351,4.785,0.714c5.697,1.101,10.628-4.263,7.834-10.738C237.483,244.084,230.198,243.991,227.09,248.892z"
					/>
				<path style="fill:#FF8282;" d="M168.524,285.986l6.423-3.508c0,0,4.714-8.25,7.775-10.177c3.061-1.927,7-4.78,7.918-4.264
					c0.919,0.516-5.027,5.019-5.027,5.019s7.451-2.284,8.072-1.325c0.621,0.959-6.987,3.401-6.987,3.401s8.566-0.05,8.575,0.742
					c0.009,0.793-7.337,1.698-7.337,1.698s7.405,0.412,6.779,1.587c-0.626,1.175-6.939,0.615-6.939,0.615s-1.688,5.681-8.767,7.135
					l-7.843,5.829L168.524,285.986z"/>
				<path style="fill:#354552;" d="M164.829,228.692c-9.783,1.418-25.805,19.85-34.312,31.476
					c-8.507,11.626-26.514,36.297-17.723,52.744c8.301,15.53,42.725,2.07,58.199-18.473c1.156-0.978,3.166-1.913,4.209-2.917
					l-4.844-7.818l-22.686,7.231c0,0,9.925-12.619,16.305-19.85C170.359,263.854,175.322,235.923,164.829,228.692z"/>
				
					<line style="fill:none;stroke:#66869E;stroke-width:0.5671;stroke-linecap:round;stroke-linejoin:round;stroke-miterlimit:10;" x1="170.994" y1="294.439" x2="166.814" y2="285.831"/>
				
					<path style="fill:none;stroke:#66869E;stroke-width:0.5671;stroke-linecap:round;stroke-linejoin:round;stroke-miterlimit:10;" d="
					M147.673,290.935c0,0-9.925,2.788-16.92,5.813"/>
				
					<path style="fill:none;stroke:#66869E;stroke-width:0.5671;stroke-linecap:round;stroke-linejoin:round;stroke-miterlimit:10;" d="
					M133.873,288.052c0,0,6.417-0.318,10.87,1.04"/>
			</g>
		</g>
		<g>
			<rect x="309.072" y="291.327" style="fill:#7A4A0F;" width="142.887" height="7.071"/>
			<g>
				<polygon style="fill:#7A4A0F;" points="462.801,446.156 453.187,446.156 431.411,298.397 441.025,298.397 				"/>
				<polygon style="fill:#7A4A0F;" points="298.23,446.156 307.844,446.156 329.621,298.397 320.007,298.397 				"/>
			</g>
			<g style="opacity:0.44;">
				
					<linearGradient id="SVGID_00000171715716951282745210000007848394978768698258_" gradientUnits="userSpaceOnUse" x1="323.8522" y1="362.9753" x2="323.8522" y2="303.8606">
					<stop  offset="0" style="stop-color:#000000;stop-opacity:0"/>
					<stop  offset="1" style="stop-color:#000000"/>
				</linearGradient>
				<polygon style="fill:url(#SVGID_00000171715716951282745210000007848394978768698258_);" points="327.571,312.307 
					329.621,298.397 320.007,298.397 318.084,311.445 				"/>
				
					<linearGradient id="SVGID_00000109713540266128803920000005004431749690132150_" gradientUnits="userSpaceOnUse" x1="438.0271" y1="362.9754" x2="438.0271" y2="303.8608">
					<stop  offset="0" style="stop-color:#000000;stop-opacity:0"/>
					<stop  offset="1" style="stop-color:#000000"/>
				</linearGradient>
				<polygon style="fill:url(#SVGID_00000109713540266128803920000005004431749690132150_);" points="441.025,298.397 
					431.411,298.397 434.899,322.063 444.643,322.948 				"/>
			</g>
		</g>
		<g>
			<g>
				
					<linearGradient id="SVGID_00000166654078392975374440000016051658408465374346_" gradientUnits="userSpaceOnUse" x1="427.7463" y1="289.7308" x2="380.5608" y2="289.7308">
					<stop  offset="0" style="stop-color:#FFFFFF"/>
					<stop  offset="0.1618" style="stop-color:#FEF6E4"/>
					<stop  offset="0.5106" style="stop-color:#FCDD9E"/>
					<stop  offset="0.9747" style="stop-color:#F9BA39"/>
				</linearGradient>
				
					<rect x="355.53" y="288.135" style="fill:url(#SVGID_00000166654078392975374440000016051658408465374346_);" width="68.908" height="3.191"/>
				<polygon style="fill:#FFFFFF;" points="383.84,291.326 325.46,291.326 315.027,247.301 373.407,247.301 				"/>
				<path style="fill:#F9C863;" d="M357.049,272.22h-13.854c-1.936,0-3.815-1.301-4.195-2.907l0,0
					c-0.38-1.605,0.881-2.907,2.817-2.907h13.854c1.936,0,3.815,1.301,4.195,2.907l0,0
					C360.247,270.919,358.986,272.22,357.049,272.22z"/>
			</g>
		</g>
		
			<line style="fill:none;stroke:#222F73;stroke-width:2.2686;stroke-linecap:round;stroke-linejoin:round;stroke-miterlimit:10;" x1="394.131" y1="94.695" x2="485.656" y2="94.695"/>
		
			<polyline style="fill:none;stroke:#222F73;stroke-width:2.2686;stroke-linecap:round;stroke-linejoin:round;stroke-miterlimit:10;" points="
			236.424,196.26 236.424,140.71 315.027,140.71 		"/>
		<g>
			
				<linearGradient id="SVGID_00000155109922647324182600000011295073327458375857_" gradientUnits="userSpaceOnUse" x1="296.6199" y1="431.4102" x2="296.6199" y2="342.3256">
				<stop  offset="0" style="stop-color:#000000;stop-opacity:0"/>
				<stop  offset="1" style="stop-color:#000000"/>
			</linearGradient>
			<path style="opacity:0.44;fill:url(#SVGID_00000155109922647324182600000011295073327458375857_);" d="M324.05,352.451
				c2.145,1.461,4.036,2.601,5.571,3.458v-27.304h-66.002v66.002h27.307c-0.857,1.533-1.994,3.421-3.453,5.562
				c-4.429,6.499-0.402,15.516,9.156,15.516c9.558,0,13.585-9.017,9.156-15.516c-1.459-2.141-2.596-4.029-3.453-5.562h27.289
				v-27.304c-1.534,0.858-3.426,1.997-5.571,3.459c-6.499,4.429-15.516,0.402-15.516-9.156
				C308.534,352.049,317.551,348.022,324.05,352.451z"/>
			<path style="fill:#285EE0;" d="M321.25,349.099c2.144,1.462,4.036,2.601,5.571,3.459v-27.304h-66.002v66.002h27.307
				c-0.857,1.533-1.994,3.421-3.453,5.562c-4.429,6.499-0.402,15.516,9.156,15.516c9.558,0,13.585-9.017,9.156-15.516
				c-1.459-2.141-2.596-4.029-3.453-5.562h27.289v-27.304c-1.534,0.858-3.426,1.997-5.571,3.458
				c-6.499,4.429-15.516,0.402-15.516-9.156C305.734,348.698,314.751,344.67,321.25,349.099z"/>
		</g>
		<g>
			<path style="fill:#222F73;" d="M522.497,236.197l18.25-6.993c3.416-25.283,25.069-44.778,51.288-44.778
				c28.593,0,51.771,23.179,51.771,51.771c0,28.593-23.179,51.771-51.771,51.771c-26.219,0-47.872-19.495-51.288-44.778
				L522.497,236.197z"/>
			
				<linearGradient id="SVGID_00000096019885350651903810000010560102711007218365_" gradientUnits="userSpaceOnUse" x1="564.5201" y1="239.1608" x2="623.6878" y2="239.1608">
				<stop  offset="0" style="stop-color:#000000;stop-opacity:0"/>
				<stop  offset="1" style="stop-color:#000000"/>
			</linearGradient>
			
				<rect x="564.52" y="209.577" style="opacity:0.44;fill:url(#SVGID_00000096019885350651903810000010560102711007218365_);" width="59.168" height="59.168"/>
			<g>
				<path style="fill:#E6457A;" d="M609.516,236.977c0.385-0.688,0.895-1.536,1.55-2.497c1.985-2.913,0.18-6.955-4.104-6.955
					c-4.284,0-6.089,4.042-4.104,6.955c0.655,0.961,1.166,1.809,1.55,2.497H592.17v12.245c0.685-0.383,1.526-0.89,2.479-1.54
					c2.913-1.985,6.955-0.18,6.955,4.104s-4.042,6.089-6.955,4.104c-0.954-0.65-1.794-1.156-2.479-1.54v12.21h29.584v-29.584
					H609.516z"/>
				<path style="fill:#78BBFF;" d="M594.667,247.665c-0.961,0.655-1.809,1.166-2.497,1.55v-12.238h-12.238
					c0.384,0.688,0.895,1.536,1.55,2.497c1.985,2.913,0.18,6.955-4.104,6.955s-6.089-4.042-4.104-6.955
					c0.655-0.961,1.166-1.809,1.55-2.497h-12.238v29.584h29.584v-12.238c0.688,0.384,1.536,0.895,2.497,1.55
					c2.913,1.985,6.955,0.18,6.955-4.104C601.622,247.485,597.58,245.68,594.667,247.665z"/>
				<path style="fill:#285EE0;" d="M589.673,218.082c0.961,0.655,1.809,1.166,2.497,1.55v-12.238h-29.584v29.584h12.24
					c-0.384,0.687-0.894,1.533-1.548,2.493c-1.985,2.913-0.18,6.955,4.104,6.955s6.089-4.042,4.104-6.955
					c-0.654-0.96-1.164-1.806-1.548-2.493h12.232v-12.238c-0.688,0.384-1.536,0.895-2.497,1.55c-2.913,1.985-6.955,0.18-6.955-4.104
					S586.76,216.096,589.673,218.082z"/>
				<path style="fill:#FFFFFF;" d="M592.17,207.394v12.238c-0.688-0.384-1.536-0.895-2.497-1.55
					c-2.913-1.985-6.955-0.18-6.955,4.104s4.042,6.089,6.955,4.104c0.961-0.655,1.809-1.166,2.497-1.55v12.238h12.238
					c-0.384-0.688-0.895-1.536-1.55-2.497c-1.985-2.913-0.18-6.955,4.104-6.955c4.284,0,6.089,4.042,4.104,6.955
					c-0.655,0.961-1.166,1.809-1.55,2.497h12.238v-29.584H592.17z"/>
			</g>
		</g>
		<g>
			
				<linearGradient id="SVGID_00000056398489598536307900000017819191189246112438_" gradientUnits="userSpaceOnUse" x1="237.7069" y1="233.5726" x2="237.7069" y2="180.1531">
				<stop  offset="0" style="stop-color:#000000;stop-opacity:0"/>
				<stop  offset="1" style="stop-color:#000000"/>
			</linearGradient>
			
				<circle style="opacity:0.57;fill:url(#SVGID_00000056398489598536307900000017819191189246112438_);" cx="237.707" cy="194.709" r="23.764"/>
			
				<ellipse transform="matrix(0.2274 -0.9738 0.9738 0.2274 -3.3833 379.8559)" style="fill:#88B834;" cx="237.707" cy="192.06" rx="23.764" ry="23.764"/>
			<g style="opacity:0.57;">
				
					<linearGradient id="SVGID_00000016048073734198655560000009287440779762878638_" gradientUnits="userSpaceOnUse" x1="233.9435" y1="184.893" x2="233.9435" y2="198.1749">
					<stop  offset="0" style="stop-color:#000000;stop-opacity:0"/>
					<stop  offset="1" style="stop-color:#000000"/>
				</linearGradient>
				<path style="fill:url(#SVGID_00000016048073734198655560000009287440779762878638_);" d="M240.449,200.182h-13.011
					c-1.301,0-2.356-1.055-2.356-2.356v-8.696c0-1.301,1.055-2.356,2.356-2.356h13.011c1.301,0,2.356,1.055,2.356,2.356v8.696
					C242.804,199.127,241.75,200.182,240.449,200.182z"/>
				
					<linearGradient id="SVGID_00000101101809481675381000000013143871805229753002_" gradientUnits="userSpaceOnUse" x1="248.3349" y1="184.893" x2="248.3349" y2="198.1748">
					<stop  offset="0" style="stop-color:#000000;stop-opacity:0"/>
					<stop  offset="1" style="stop-color:#000000"/>
				</linearGradient>
				<path style="fill:url(#SVGID_00000101101809481675381000000013143871805229753002_);" d="M250.59,187.855l-6.06,4.227v2.792
					l6.06,4.227c0.653,0.456,1.549-0.012,1.549-0.808v-9.63C252.139,187.867,251.243,187.399,250.59,187.855z"/>
			</g>
			<g>
				<path style="fill:#FFFFFF;" d="M240.449,198.764h-13.011c-1.301,0-2.356-1.055-2.356-2.356v-8.696
					c0-1.301,1.055-2.356,2.356-2.356h13.011c1.301,0,2.356,1.055,2.356,2.356v8.696
					C242.804,197.709,241.75,198.764,240.449,198.764z"/>
				<path style="fill:#FFFFFF;" d="M250.59,186.437l-6.06,4.227v2.792l6.06,4.227c0.653,0.456,1.549-0.012,1.549-0.808v-9.63
					C252.139,186.449,251.243,185.982,250.59,186.437z"/>
			</g>
		</g>
		
			<linearGradient id="SVGID_00000053505170307304509370000000930772158180706725_" gradientUnits="userSpaceOnUse" x1="313.5028" y1="142.5465" x2="426.1748" y2="142.5465">
			<stop  offset="0" style="stop-color:#000000;stop-opacity:0"/>
			<stop  offset="1" style="stop-color:#000000"/>
		</linearGradient>
		
			<rect x="313.503" y="80.422" style="opacity:0.44;fill:url(#SVGID_00000053505170307304509370000000930772158180706725_);" width="112.672" height="124.25"/>
		<rect x="308.925" y="74.445" style="fill:#F9BA39;" width="112.672" height="124.25"/>
		<g>
			<polygon style="fill:#C71818;" points="336.996,184.426 329.383,198.695 410.295,198.695 389.405,185.082 			"/>
			<path style="fill:#FFFFFF;" d="M358.874,81.201c9.736,0,8.885,6.995,11.154,8.98c2.269,1.985,4.348,1.985,4.254,5.861
				c-0.095,3.875-0.378,5.293,1.89,6.333c2.269,1.04,1.985,5.815,1.985,5.815h-37.526c0,0-1.229-4.208,1.512-6.571
				c2.741-2.363,4.348-3.875,4.443-7.373c0.094-3.497,2.458-6.428,4.443-7.184C353.014,86.305,352.73,81.201,358.874,81.201z"/>
			<path style="fill:#FF8282;" d="M355.258,102.563l-0.547,9.001c-0.057,0.942-0.543,1.805-1.318,2.343l-2.246,1.559
				c0,0,0.567,3.474,9.074,3.474c8.507,0,9.145-3.545,9.145-3.545l-3.491-1.872c-0.878-0.471-1.475-1.338-1.6-2.327l-1.093-8.632
				H355.258z"/>
			<path style="fill:#D94D4D;" d="M364.122,109.991l-0.94-7.428h-7.924l-0.226,3.712
				C356.673,108.087,359.561,110.146,364.122,109.991z"/>
			<path style="fill:#613B0C;" d="M360.717,117.663c-4.892,0.021-7.727-1.56-9.57-3.545c0,0-1.063-0.284-1.914,1.772l-6.664,4.395
				l-7.515,65.93h56.856l-4.308-35.305l33.09,15.738l2.552-18.29c0,0-36.58-28.215-51.043-33.319c0,0-1.607-1.465-2.836-1.134
				C368.137,114.237,366.341,117.64,360.717,117.663z"/>
			
				<linearGradient id="SVGID_00000152243781428218028870000008340618883256914072_" gradientUnits="userSpaceOnUse" x1="374.2955" y1="157.3562" x2="333.3075" y2="157.3562">
				<stop  offset="0" style="stop-color:#000000;stop-opacity:0"/>
				<stop  offset="1" style="stop-color:#000000"/>
			</linearGradient>
			<path style="opacity:0.44;fill:url(#SVGID_00000152243781428218028870000008340618883256914072_);" d="M355.944,147.745
				c-0.76-10.497-10.727-17.175-14.311-19.249l-6.579,57.721h56.856l-0.419-3.437C368.952,177.054,356.849,160.251,355.944,147.745z
				"/>
			
				<path style="fill:none;stroke:#59301E;stroke-width:0.6164;stroke-linecap:round;stroke-linejoin:round;stroke-miterlimit:10;" d="
				M385.147,121.713l2.455,29.199l34.493,16.405l1.15-18.957C423.244,148.36,401.705,131.749,385.147,121.713z"/>
			
				<path style="fill:none;stroke:#7A4A0F;stroke-width:0.5671;stroke-linecap:round;stroke-linejoin:round;stroke-miterlimit:10;" d="
				M351.69,135.646c0,0-0.473,5.955-5.86,12.099"/>
			<path style="fill:#FF8282;" d="M353.415,93.347l12.761-0.425c0,0,0.142,13.186-6.38,13.186
				C353.273,106.108,352.919,97.884,353.415,93.347z"/>
			<path style="fill:#E6457A;" d="M391.805,123.747c0.633-1.132,1.473-2.528,2.552-4.11c3.268-4.795,0.297-11.448-6.755-11.448
				c-7.052,0-10.023,6.652-6.755,11.448c1.078,1.582,1.919,2.978,2.552,4.11h-20.145v20.157c1.128-0.631,2.511-1.465,4.081-2.535
				c4.795-3.268,11.448-0.297,11.448,6.755c0,7.052-6.652,10.023-11.448,6.755c-1.57-1.07-2.954-1.904-4.081-2.535v20.099h48.696
				v-48.696H391.805z"/>
			<path style="fill:#FF8282;" d="M419.322,143.62c0,0-3.595-1.98-4.064-3.23c-0.469-1.25-0.677-3.856-1.876-4.95
				c-1.198-1.094-4.637-3.908-5.21-3.283c-0.573,0.625,2.501,2.97,2.501,2.97s-4.741-1.876-5.002-1.355
				c-0.261,0.521,4.429,2.761,4.429,2.761s-4.173-0.942-4.22-0.313c-0.048,0.629,4.168,2.188,4.168,2.188s-5.106-0.365-4.637,0.208
				c0.469,0.573,4.012,1.459,4.012,1.459s-0.052,3.283,3.022,4.012l4.377,5.262L419.322,143.62z"/>
			<path style="fill:#FF8282;" d="M353.557,161.945l10.116-5.099c0,0,1.892-3.619,4.441-5.51c2.55-1.892,5.593-3.948,6.662-3.537
				c1.069,0.411-5.099,4.002-5.099,4.002s2.961-0.794,5.593-0.548c2.632,0.247,2.961,0.822,2.467,1.234
				c-0.493,0.411-4.441-0.329-6.168,0.823c4.77,0.247,6.554,0.164,6.361,0.905c-0.193,0.74-5.868,0.029-6.279,0.631
				c4.853,0.438,4.935,1.014,4.853,1.425c-0.082,0.411-3.29-0.082-4.195,0.329c-0.905,0.411-3.083,3.866-6.559,3.948
				c-3.558,3.619-10.549,9.047-10.549,9.047L353.557,161.945z"/>
			<path style="fill:#7A4A0F;" d="M417.148,141.554l-2.16,5.593c0,0-3.157,13.335,5.705,19.503
				c8.862,6.168,14.888-7.585,10.705-13.54C428.096,148.41,422.345,143.185,417.148,141.554z"/>
			<path style="fill:#613B0C;" d="M357.846,158.072l3.261,9.074l-31.65,16.488c-7.109,3.072-14.674-3.276-12.887-10.811
				c2.524-10.64,5.967-23.382,9.409-30.56c6.664-13.895,12.189-19.075,16.589-21.977c0,0,6.664,5.464,3.403,20.03
				c-3.261,14.566-5.615,22.222-5.615,22.222L357.846,158.072z"/>
			
				<path style="fill:none;stroke:#7A4A0F;stroke-width:0.5671;stroke-linecap:round;stroke-linejoin:round;stroke-miterlimit:10;" d="
				M340.356,162.538c0,0-4.452,0.284-6.72,1.914"/>
			
				<line style="fill:none;stroke:#7A4A0F;stroke-width:0.5671;stroke-linecap:round;stroke-linejoin:round;stroke-miterlimit:10;" x1="329.383" y1="168.068" x2="325.98" y2="171.542"/>
			
				<path style="fill:none;stroke:#7A4A0F;stroke-width:0.5671;stroke-linecap:round;stroke-linejoin:round;stroke-miterlimit:10;" d="
				M343.815,121.713c0,0,5.667,5.004,0.722,24.829"/>
		</g>
		
			<linearGradient id="SVGID_00000052095601635415642720000010567154486871321521_" gradientUnits="userSpaceOnUse" x1="545.948" y1="85.0557" x2="545.948" y2="196.594">
			<stop  offset="0" style="stop-color:#000000;stop-opacity:0"/>
			<stop  offset="1" style="stop-color:#000000"/>
		</linearGradient>
		
			<rect x="489.612" y="51.382" style="opacity:0.44;fill:url(#SVGID_00000052095601635415642720000010567154486871321521_);" width="112.672" height="124.25"/>
		<rect x="484.393" y="44.366" style="fill:#F9BA39;" width="112.672" height="124.25"/>
		<g>
			<path style="fill:#FF8282;" d="M540.729,59.653l-2.39,7.585l-3.19,3.757l3.119,0.709c0,0-1.772,5.175,0.071,6.097
				s6.593,0.354,6.593,0.354l2.127,6.522l12.375-3.545l-3.442-5.813l-0.922-13.541L540.729,59.653z"/>
			<path style="fill:#D94D4D;" d="M549.256,72.98c0,0-1.914,4.395-4.325,5.175l1.133,3.474
				C546.065,81.63,549.959,77.726,549.256,72.98z"/>
			<path style="fill:#285EE0;" d="M546.253,82.206c0,0,7.223,1.129,11.671-3.623l-0.886-1.497c0,0,3.136-1.636,4.625,0
				c1.489,1.636,2.907,3.621,2.907,3.621s14.32,3.261,22.402,9.074l7.373,78.834h-56.998l-1.843-35.873l-11.485,35.873
				l-28.404-0.427c0,0,20.181-50.617,25.427-60.684c5.246-10.067,12.639-16.353,23.891-21.031
				C544.932,86.474,542.345,82.208,546.253,82.206z"/>
			
				<linearGradient id="SVGID_00000180368337778534754130000014226085533672436394_" gradientUnits="userSpaceOnUse" x1="547.869" y1="166.5042" x2="582.1791" y2="126.9956">
				<stop  offset="0" style="stop-color:#000000;stop-opacity:0"/>
				<stop  offset="1" style="stop-color:#000000"/>
			</linearGradient>
			<path style="opacity:0.44;fill:url(#SVGID_00000180368337778534754130000014226085533672436394_);" d="M585.601,94.67
				c0,0-11.8,1.247-18.013,19.245c-6.212,17.998-31.121,37.591-31.121,37.591l52.678,1.811L585.601,94.67z"/>
			
				<path style="fill:none;stroke:#78BBFF;stroke-width:0.5671;stroke-linecap:round;stroke-linejoin:round;stroke-miterlimit:10;" d="
				M545.948,87.041c0,0,8.696,3.592,17.061-4.49"/>
			
				<linearGradient id="SVGID_00000132770087006390381710000003615414477001532850_" gradientUnits="userSpaceOnUse" x1="495.6142" y1="130.4857" x2="535.5031" y2="130.4857">
				<stop  offset="0" style="stop-color:#000000;stop-opacity:0"/>
				<stop  offset="1" style="stop-color:#000000"/>
			</linearGradient>
			<path style="opacity:0.44;fill:url(#SVGID_00000132770087006390381710000003615414477001532850_);" d="M534.065,92.356
				c-5.496,3.899-9.695,8.761-13.024,15.149c-5.246,10.067-25.427,60.684-25.427,60.684l28.404,0.427l11.485-35.873
				C533.6,110.215,533.532,98.454,534.065,92.356z"/>
			<path style="fill:#FFFFFF;" d="M492.432,98.794l-2.576,19.979c-1.042-0.772-2.319-1.785-3.75-3.056
				c-4.338-3.854-11.316-1.758-12.217,5.236c-0.902,6.994,5.316,10.791,10.49,8.163c1.707-0.867,3.199-1.522,4.403-2.005
				l-2.576,19.979l19.979,2.576c-0.483-1.204-1.138-2.696-2.005-4.403c-2.628-5.174,1.169-11.392,8.163-10.49
				c6.994,0.901,9.09,7.879,5.236,12.217c-1.272,1.431-2.284,2.708-3.056,3.75l19.979,2.576l6.226-48.297L492.432,98.794z"/>
			<path style="fill:#285EE0;" d="M584.728,88.322c0,0,10.083,4.721,14.245,11.669c4.162,6.947,2.885,46.647,1.468,59.692
				c-1.418,13.044-12.052,13.044-26.939,11.91c-14.888-1.134-39.133-6.948-39.133-6.948l-0.992-13.611l42.961-2.836
				C576.337,148.197,574.494,112.326,584.728,88.322z"/>
			
				<path style="fill:none;stroke:#78BBFF;stroke-width:0.5671;stroke-linecap:round;stroke-linejoin:round;stroke-miterlimit:10;" d="
				M576.337,148.197c0,0,5.341-0.473,7.609,0"/>
			
				<path style="fill:none;stroke:#78BBFF;stroke-width:0.5671;stroke-linecap:round;stroke-linejoin:round;stroke-miterlimit:10;" d="
				M573.265,99.234c0,0-0.68,10.114,4.434,17.581"/>
			
				<line style="fill:none;stroke:#78BBFF;stroke-width:0.5671;stroke-linecap:round;stroke-linejoin:round;stroke-miterlimit:10;" x1="571.186" y1="113.507" x2="575.467" y2="118.517"/>
			<path style="fill:#FF8282;" d="M533.376,153.171c0,0-3.545,0.036-5.246-1.713c-1.701-1.749-5.624-3.734-6.049-3.214
				c-0.425,0.52,2.554,2.113,1.985,2.883c-0.569,0.77-2.539,0.516-2.539,0.516l-7.48-0.978c0,0,4.868,4.763,9.665,5.141
				c4.797,0.378,10.23,2.978,10.23,2.978L533.376,153.171z"/>
			<path style="fill:#59301E;" d="M539.757,60.078c0,0,5.246,0.922,7.089,0.922c0,2.41,0.992,4.466,1.701,5.884
				c-0.071,3.261,0.425,3.899,0.425,3.899s0.78-3.757,2.41-3.403c1.631,0.354,1.347,3.261-0.354,4.608
				c2.836,2.481,4.963,3.332,4.963,3.332s0.354-3.403,2.339-6.806c1.985-3.403,1.63-10.917-3.899-13.115
				C548.902,53.201,540.324,54.903,539.757,60.078z"/>
			<path style="fill:#78BBFF;" d="M537.617,150.753l-4.24,0.28l0.992,13.611c0,0,1.839,0.441,4.806,1.101L537.617,150.753z"/>
			
				<path style="fill:none;stroke:#78BBFF;stroke-width:0.5671;stroke-linecap:round;stroke-linejoin:round;stroke-miterlimit:10;" d="
				M582.056,151.506c0,0,6.806,3.592,7.089,3.781"/>
			
				<line style="fill:none;stroke:#78BBFF;stroke-width:0.5671;stroke-linecap:round;stroke-linejoin:round;stroke-miterlimit:10;" x1="584.419" y1="156.515" x2="587.444" y2="160.58"/>
		</g>
		<path style="fill:#FCB707;" d="M130.879,371.412c-3.794,2.501-5.305,4.528-7.167,9.622c-1.863-5.094-3.373-7.121-7.167-9.622
			c3.795-2.501,5.304-4.528,7.167-9.623C125.574,366.884,127.085,368.911,130.879,371.412z"/>
		<path style="fill:#FCB707;" d="M626.749,309.226c-3.794,2.501-5.305,4.528-7.167,9.622c-1.863-5.094-3.373-7.121-7.167-9.622
			c3.794-2.501,5.305-4.528,7.167-9.623C621.444,304.698,622.955,306.725,626.749,309.226z"/>
		<path style="fill:#FCB707;" d="M191.705,94.492c-3.794,2.501-5.305,4.528-7.167,9.622c-1.863-5.094-3.373-7.121-7.167-9.622
			c3.795-2.501,5.305-4.528,7.167-9.623C186.4,89.964,187.911,91.991,191.705,94.492z"/>
		<path style="fill:#FCB707;" d="M393.092,44.367c-3.794,2.501-5.305,4.528-7.167,9.622c-1.863-5.094-3.373-7.121-7.167-9.622
			c3.794-2.501,5.304-4.528,7.167-9.623C387.787,39.838,389.297,41.866,393.092,44.367z"/>
	</g>
</g>
<g id="DESIGNED_BY_FREEPIK">
	<g>
		<g id="XMLID_319_">
			<g id="XMLID_338_">
				<path id="XMLID_346_" style="fill:#1D262D;" d="M385.104,465.465c-0.432,0.443-0.803,0.931-1.108,1.453l-0.465-0.241
					c-0.067-0.298-0.349-0.503-0.659-0.466c-0.331,0.039-0.568,0.339-0.529,0.67c0.039,0.331,0.339,0.568,0.67,0.529
					c0.065-0.008,0.127-0.026,0.183-0.052l0.452,0.234c-0.251,0.554-0.433,1.139-0.539,1.744l0.747,0.132
					c0.23-1.306,0.85-2.507,1.792-3.473L385.104,465.465z"/>
				<path id="XMLID_345_" style="fill:#1D262D;" d="M390.592,463.163c-0.171,0-0.341,0.006-0.51,0.017l-0.074-0.626
					c0.188-0.149,0.296-0.389,0.266-0.645c-0.046-0.393-0.402-0.674-0.795-0.628c-0.393,0.046-0.674,0.402-0.628,0.795
					c0.03,0.254,0.189,0.461,0.405,0.564l0.073,0.624c-0.714,0.116-1.403,0.332-2.06,0.646l0.327,0.684
					c0.934-0.447,1.942-0.673,2.995-0.673c0.496,0,0.993,0.053,1.475,0.158l0.161-0.741
					C391.692,463.222,391.142,463.163,390.592,463.163z"/>
				<path id="XMLID_344_" style="fill:#1D262D;" d="M397.194,465.711c0.331-0.04,0.566-0.341,0.526-0.672
					c-0.04-0.331-0.341-0.566-0.672-0.526c-0.309,0.038-0.535,0.304-0.53,0.609l-0.416,0.363c-0.418-0.43-0.89-0.813-1.408-1.139
					l-0.404,0.641c1.134,0.715,2.021,1.726,2.563,2.925l0.691-0.313c-0.251-0.554-0.568-1.072-0.942-1.545l0.402-0.351
					C397.065,465.716,397.129,465.719,397.194,465.711z"/>
				<path id="XMLID_343_" style="fill:#1D262D;" d="M390.044,473.372c-0.386,0.023-0.775,0.035-1.157,0.035
					c-0.88,0-1.733-0.061-2.478-0.179c-0.39-0.062-0.846-0.155-1.27-0.292c1.046,1.861,3.069,3.125,5.388,3.125
					c2.855,0,5.262-1.916,5.95-4.504c-0.682,0.449-1.505,0.825-2.459,1.123C392.839,473.047,391.464,473.286,390.044,473.372z"/>
				<path id="XMLID_339_" style="fill:#1D262D;" d="M390.592,464.68c-3.352,0-6.08,2.666-6.08,5.943
					c0,0.426,0.046,0.849,0.137,1.261c0.673,0.483,2.706,0.89,5.348,0.731c2.879-0.173,5.297-0.957,6.672-2.159
					c-0.005-0.195-0.021-0.39-0.045-0.582C396.244,466.913,393.65,464.68,390.592,464.68z M388.432,471.194
					c-1.02,0-1.85-0.83-1.85-1.85c0-1.02,0.83-1.85,1.85-1.85c1.02,0,1.85,0.83,1.85,1.85
					C390.282,470.365,389.452,471.194,388.432,471.194z M393.17,470.286c-0.75,0-1.36-0.61-1.36-1.36s0.61-1.361,1.36-1.361
					c0.75,0,1.361,0.61,1.361,1.361S393.92,470.286,393.17,470.286z"/>
			</g>
			<path id="XMLID_336_" style="fill:#1D262D;" d="M406.595,466.547c-0.295-0.116-0.805-0.309-1.382-0.237
				c-0.551,0.069-0.844,0.341-0.844,1.007v0.866h2.228v1.717h-2.228v5.455h-1.932v-5.455h-1.34v-1.717h1.34v-0.888
				c0-1.68,0.896-2.783,2.568-2.783c0.643,0,1.157,0.122,1.59,0.308L406.595,466.547z"/>
			<path id="XMLID_334_" style="fill:#1D262D;" d="M411.298,469.879c-0.177-0.03-0.358-0.046-0.526-0.046
				c-0.896,0-1.51,0.548-1.51,1.614v3.908h-1.932v-7.172h1.873v0.785c0.451-0.673,1.14-0.977,2.021-0.977
				c0.414,0,0.848,0.128,1.094,0.337L411.298,469.879z"/>
			<path id="XMLID_331_" style="fill:#1D262D;" d="M418.965,471.757c0,0.222-0.015,0.489-0.037,0.651h-5.085
				c0.207,1.036,0.933,1.488,1.843,1.488c0.622,0,1.295-0.252,1.813-0.688l1.132,1.243c-0.814,0.748-1.85,1.088-3.057,1.088
				c-2.198,0-3.723-1.495-3.723-3.753c0-2.258,1.48-3.797,3.627-3.797C417.544,467.99,418.958,469.522,418.965,471.757z
				 M413.851,471.091h3.175c-0.177-0.918-0.733-1.436-1.562-1.436C414.554,469.655,414.021,470.203,413.851,471.091z"/>
			<path id="XMLID_328_" style="fill:#1D262D;" d="M426.618,471.757c0,0.222-0.015,0.489-0.037,0.651h-5.085
				c0.207,1.036,0.933,1.488,1.843,1.488c0.622,0,1.295-0.252,1.813-0.688l1.132,1.243c-0.814,0.748-1.85,1.088-3.057,1.088
				c-2.198,0-3.723-1.495-3.723-3.753c0-2.258,1.48-3.797,3.627-3.797C425.197,467.99,426.611,469.522,426.618,471.757z
				 M421.504,471.091h3.175c-0.178-0.918-0.733-1.436-1.562-1.436C422.207,469.655,421.674,470.203,421.504,471.091z"/>
			<path id="XMLID_325_" style="fill:#1D262D;" d="M434.964,471.764c0,2.154-1.495,3.775-3.471,3.775
				c-0.962,0-1.643-0.378-2.109-0.933v3.708h-1.924v-10.133h1.887v0.792c0.466-0.585,1.155-0.984,2.139-0.984
				C433.469,467.99,434.964,469.61,434.964,471.764z M429.287,471.764c0,1.132,0.747,1.976,1.843,1.976
				c1.14,0,1.85-0.881,1.85-1.976c0-1.095-0.71-1.976-1.85-1.976C430.035,469.788,429.287,470.632,429.287,471.764z"/>
			<path id="XMLID_322_" style="fill:#1D262D;" d="M438.068,465.836c0,0.696-0.54,1.229-1.236,1.229
				c-0.696,0-1.229-0.533-1.229-1.229c0-0.696,0.533-1.243,1.229-1.243C437.527,464.592,438.068,465.14,438.068,465.836z
				 M437.809,475.354h-1.932v-7.172h1.932V475.354z"/>
			<path id="XMLID_320_" style="fill:#1D262D;" d="M441.032,470.736l2.701-2.554h2.368l-3.479,3.375l3.501,3.797h-2.376
				l-2.716-2.901v2.901H439.1v-10.658h1.932V470.736z"/>
		</g>
		<g>
			<path style="fill:#1D262D;" d="M309.412,475.289v-1.055c-0.527,0.718-1.391,1.23-2.387,1.23c-1.846,0-3.149-1.406-3.149-3.706
				c0-2.256,1.289-3.721,3.149-3.721c0.952,0,1.816,0.469,2.387,1.245v-3.765h1.099v9.77H309.412z M309.412,473.37v-3.208
				c-0.395-0.615-1.245-1.143-2.124-1.143c-1.421,0-2.27,1.172-2.27,2.739c0,1.567,0.85,2.724,2.27,2.724
				C308.168,474.483,309.017,473.986,309.412,473.37z"/>
			<path style="fill:#1D262D;" d="M311.932,471.744c0-2.051,1.465-3.706,3.486-3.706c2.139,0,3.398,1.67,3.398,3.794v0.279h-5.727
				c0.088,1.333,1.026,2.446,2.549,2.446c0.806,0,1.626-0.322,2.182-0.894l0.527,0.718c-0.703,0.703-1.655,1.084-2.812,1.084
				C313.44,475.465,311.932,473.956,311.932,471.744z M315.404,468.947c-1.509,0-2.256,1.274-2.315,2.358h4.643
				C317.718,470.25,317.015,468.947,315.404,468.947z"/>
			<path style="fill:#1D262D;" d="M319.607,474.351l0.571-0.791c0.469,0.542,1.362,1.011,2.329,1.011c1.084,0,1.67-0.513,1.67-1.216
				c0-1.714-4.38-0.659-4.38-3.281c0-1.098,0.952-2.036,2.636-2.036c1.201,0,2.051,0.454,2.622,1.026l-0.513,0.762
				c-0.424-0.513-1.201-0.894-2.109-0.894c-0.967,0-1.567,0.483-1.567,1.113c0,1.552,4.38,0.527,4.38,3.281
				c0,1.187-0.952,2.138-2.783,2.138C321.306,475.465,320.325,475.113,319.607,474.351z"/>
			<path style="fill:#1D262D;" d="M326.477,466.471c0-0.41,0.337-0.747,0.732-0.747c0.41,0,0.747,0.337,0.747,0.747
				c0,0.41-0.337,0.732-0.747,0.732C326.814,467.203,326.477,466.881,326.477,466.471z M326.667,475.289v-7.075h1.099v7.075H326.667
				z"/>
			<path style="fill:#1D262D;" d="M329.582,477.105l0.556-0.82c0.586,0.703,1.289,0.967,2.3,0.967c1.172,0,2.27-0.571,2.27-2.124
				v-1.011c-0.513,0.718-1.377,1.26-2.373,1.26c-1.845,0-3.149-1.377-3.149-3.662c0-2.27,1.289-3.677,3.149-3.677
				c0.952,0,1.802,0.469,2.373,1.245v-1.069h1.099v6.87c0,2.344-1.641,3.076-3.369,3.076
				C331.237,478.16,330.417,477.926,329.582,477.105z M334.709,473.253v-3.091c-0.381-0.615-1.23-1.143-2.109-1.143
				c-1.421,0-2.27,1.128-2.27,2.695c0,1.553,0.849,2.695,2.27,2.695C333.478,474.41,334.328,473.868,334.709,473.253z"/>
			<path style="fill:#1D262D;" d="M342.413,475.289v-4.629c0-1.245-0.63-1.641-1.582-1.641c-0.865,0-1.685,0.527-2.095,1.099v5.17
				h-1.099v-7.075h1.099v1.025c0.498-0.586,1.465-1.201,2.519-1.201c1.48,0,2.256,0.747,2.256,2.285v4.966H342.413z"/>
			<path style="fill:#1D262D;" d="M344.932,471.744c0-2.051,1.465-3.706,3.486-3.706c2.138,0,3.398,1.67,3.398,3.794v0.279h-5.727
				c0.088,1.333,1.025,2.446,2.549,2.446c0.806,0,1.626-0.322,2.183-0.894l0.527,0.718c-0.703,0.703-1.655,1.084-2.812,1.084
				C346.441,475.465,344.932,473.956,344.932,471.744z M348.404,468.947c-1.509,0-2.256,1.274-2.314,2.358h4.643
				C350.718,470.25,350.015,468.947,348.404,468.947z"/>
			<path style="fill:#1D262D;" d="M358.35,475.289v-1.055c-0.527,0.718-1.392,1.23-2.388,1.23c-1.846,0-3.149-1.406-3.149-3.706
				c0-2.256,1.289-3.721,3.149-3.721c0.952,0,1.817,0.469,2.388,1.245v-3.765h1.098v9.77H358.35z M358.35,473.37v-3.208
				c-0.396-0.615-1.245-1.143-2.124-1.143c-1.421,0-2.27,1.172-2.27,2.739c0,1.567,0.849,2.724,2.27,2.724
				C357.105,474.483,357.954,473.986,358.35,473.37z"/>
			<path style="fill:#1D262D;" d="M364.692,475.289v-9.77h1.099v3.765c0.572-0.776,1.421-1.245,2.388-1.245
				c1.845,0,3.149,1.465,3.149,3.721c0,2.299-1.304,3.706-3.149,3.706c-0.996,0-1.86-0.513-2.388-1.23v1.055H364.692z
				 M367.9,474.483c1.436,0,2.286-1.157,2.286-2.724c0-1.568-0.85-2.739-2.286-2.739c-0.864,0-1.728,0.527-2.109,1.143v3.208
				C366.171,473.986,367.036,474.483,367.9,474.483z"/>
			<path style="fill:#1D262D;" d="M372.529,477.061c0.161,0.073,0.425,0.117,0.601,0.117c0.483,0,0.806-0.161,1.055-0.747
				l0.469-1.069l-2.959-7.148h1.187l2.358,5.8l2.344-5.8h1.201l-3.545,8.51c-0.425,1.025-1.143,1.421-2.08,1.435
				c-0.234,0-0.601-0.044-0.806-0.103L372.529,477.061z"/>
		</g>
	</g>
</g>
</svg>
