<?xml version="1.0" encoding="utf-8"?>
<!-- Generator: Adobe Illustrator 27.5.0, SVG Export Plug-In . SVG Version: 6.00 Build 0)  -->
<svg version="1.1" id="Layer_1" xmlns="http://www.w3.org/2000/svg" xmlns:xlink="http://www.w3.org/1999/xlink" x="0px" y="0px"
	 viewBox="0 0 305.21 272.999" style="enable-background:new 0 0 305.21 272.999;" xml:space="preserve">
<g>
	<g>
		<path style="fill:#C3B497;" d="M288.537,63.547c-7.311-11.826-18.997-18.976-32.418-22.199
			c-26.72-6.416-57.588-0.499-82.247,10.699c-28.999,13.17-55.259,33.83-74.292,59.318c-25.493,34.14-51.388,92.499-18.019,130.447
			c43.819,49.829,121.033,22.609,162.062-15.097c13.994-12.862,27.007-28.164,37.502-44.032
			C293.825,163.475,313.67,104.202,288.537,63.547z M243.763,211.307c-6.287,6.564-14.54,13.004-24.21,15.138
			c-11.786,2.602-25.694-2.261-26.9-13.522c-1.795-16.774,25.361-44.567,47.474-40.107c21.027,4.24,15.099,25.54,6.251,35.635
			C245.549,209.397,244.676,210.354,243.763,211.307z"/>
		<path style="fill:#EBE8D9;" d="M286.525,59.527c-7.311-11.827-18.997-18.976-32.417-22.199
			c-26.72-6.416-57.589-0.498-82.247,10.701c-28.997,13.169-55.26,33.829-74.292,59.316c-25.493,34.14-51.389,92.5-18.019,130.448
			c43.82,49.828,121.034,22.609,162.061-15.098c13.995-12.863,27.009-28.164,37.503-44.033
			C291.815,159.455,311.66,100.181,286.525,59.527z M241.753,207.286c-6.288,6.563-14.539,13.003-24.21,15.139
			c-11.785,2.602-25.693-2.263-26.898-13.522c-1.796-16.775,25.359-44.569,47.473-40.108c21.026,4.241,15.1,25.54,6.251,35.636
			C243.54,205.376,242.666,206.334,241.753,207.286z"/>
		<path style="opacity:0.8;fill:#EBE8D9;" d="M262.953,171.705c-4.203,1.589-8.46,3.06-12.76,4.412
			c5.25,8.349,0.454,21.149-5.825,28.314c-0.829,0.945-1.702,1.902-2.615,2.855c-6.288,6.563-14.539,13.003-24.21,15.139
			c-11.785,2.602-25.693-2.263-26.898-13.522c-0.753-7.034,3.585-16.003,10.503-23.72c-0.787,0.039-1.577,0.084-2.365,0.11
			c-19.559,0.667-40.952-1.725-58.322-11.397c-14.395-8.018-23.738-21.284-26.051-37.624c-2.371-16.748,1.925-34.124,8.022-49.641
			c1.339-3.409,2.787-6.774,4.327-10.099c-10.888,9.169-20.751,19.514-29.189,30.813c-25.493,34.14-51.389,92.5-18.019,130.448
			c43.82,49.828,121.034,22.609,162.061-15.098c13.995-12.863,27.009-28.164,37.503-44.033c2.847-4.304,6.053-10.629,9.031-18.301
			C279.988,164.658,271.563,168.448,262.953,171.705z"/>
		<path style="fill:#EF5761;" d="M152.682,96.502c-0.725-1.488-2.154-2.787-4.604-3.765c-6.221-2.485-16.659-1.44-21.829,2.821
			c-4.096,3.376-7.896,8.695-10.192,13.256c-1.852,3.678-5.38,5.327-9.154,7.108c-5.321,2.512-8.368,6.333-10.075,11.466
			c-1.183,3.552-2.116,9.469,3.038,10.855c6.41,1.722,12.132-4.665,18.357-4.867c7.202-0.233,14.84,1.254,20.706-3.644
			c5.703-4.763,8.353-12.257,10.649-18.772C151.072,106.721,154.848,100.957,152.682,96.502z"/>
		<path style="fill:#EF5761;" d="M153.086,97.623c-0.773,3.532-3.766,6.502-6.222,8.98c-3.554,3.587-5.863,7.84-8.565,12.05
			c-1.957,3.048-4.315,6.232-7.846,7.533c-2.178,0.803-4.399,0.929-6.697,0.695c-2.967-0.302-5.945-1.81-8.97-1.173
			c-3.47,0.731-5.31,3.073-7.897,5.195c-1.562,1.281-3.178,2.379-5.263,2.384c-3.658,0.013-4.442-4.664-4.148-7.628
			c-0.235,0.559-0.453,1.135-0.651,1.729c-1.183,3.552-2.116,9.469,3.038,10.855c6.41,1.722,12.132-4.665,18.357-4.867
			c7.202-0.233,14.84,1.254,20.706-3.644c5.703-4.763,8.353-12.257,10.649-18.772C150.949,107.067,154.232,101.892,153.086,97.623z"
			/>
		<path style="fill:#BCE26D;" d="M233.889,60.251c-1.194-3.326-3.8-4.975-7.274-5.254c-3.905-0.315-8.452,3.127-11.725,0.037
			c-2.449-2.314-2.108-6.294-4.829-8.468c-3.859-3.082-8.76-2.333-12.586,0.121c-2.398,0.71-3.618,2.466-4.979,4.901
			c-0.236,0.421-0.393,0.849-0.51,1.283c-0.747,0.895-1.408,1.85-1.941,2.852c-2.467,4.643-0.851,10.154-3.879,14.535
			c-2.542,3.674-7.065,5.699-9.057,9.727c-1.949,3.94,1.587,8.031,4.743,10.013c3.868,2.426,7.317,0.045,10.096-2.749
			c1.886-1.896,3.751-3.814,5.643-5.705c2.48-2.479,4.951-4.557,8.504-2.658c2.269,1.212,4.148,2.508,6.669,3.244
			c2.367,0.691,4.985,0.616,7.372,0.095c6.025-1.313,10.827-6.377,13.082-11.929C234.373,67.455,234.945,63.192,233.889,60.251z
			 M196.904,47.072c-1.309,0.926-2.471,2.046-3.392,3.275c0.18-0.295,0.36-0.588,0.531-0.878
			C194.727,48.299,195.736,47.538,196.904,47.072z"/>
		<path style="fill:#BCE26D;" d="M233.929,60.251c-1.192-3.326-3.8-4.975-7.274-5.254c-3.904-0.315-8.451,3.127-11.723,0.037
			c-2.161-2.042-2.153-5.377-3.987-7.628c-0.74,3.137-2.218,7.695,0.156,9.792c1.779,1.571,4.579,0.378,6.695,0.327
			c1.965-0.045,4.036,0.03,5.932,0.603c3.434,1.035,6.135,3.631,4.671,7.393c-1.48,3.801-6.01,6.923-9.563,8.583
			c-2.145,1.003-4.45,1.494-6.811,1.075c-2.671-0.472-5.134-1.676-7.79-2.186c-7.527-1.446-11.169,4.159-15.592,9.008
			c-2.821,3.094-7.049,6.67-10.554,2.196c-0.786-1.005-1.144-2.196-1.244-3.463c-1.198,3.702,2.091,7.41,5.049,9.265
			c3.867,2.426,7.316,0.045,10.095-2.749c1.887-1.896,3.753-3.814,5.643-5.705c2.48-2.479,4.953-4.557,8.505-2.658
			c2.269,1.212,4.147,2.508,6.668,3.244c2.367,0.691,4.986,0.616,7.373,0.095c6.024-1.313,10.827-6.377,13.082-11.929
			C234.414,67.455,234.986,63.192,233.929,60.251z"/>
		<path style="fill:#F4DA54;" d="M106.844,184.244c-0.366-0.795-0.844-1.561-1.444-2.297c-2.422-2.967-6.586-3.581-6.385-8.095
			c0.183-4.097,2.54-5.75-2.981-7.347c-7.875-2.277-24.651,6.879-20.905,16.828c1.532,4.065,3.152,5.43,0.827,9.514
			c-1.584,2.781-4.232,4.331-3.756,7.977c0.515,3.936,3.866,8.898,8.372,8.05c4.39-0.827,5.618-6.676,9.588-8.345
			c4.66-1.959,9.559,2.744,13.717-1.247C107.59,195.718,109.01,188.941,106.844,184.244z"/>
		<path style="fill:#F4DA54;" d="M106.886,184.244c-0.366-0.795-0.844-1.561-1.445-2.297c-2.421-2.967-6.586-3.581-6.385-8.095
			c0.183-4.097,2.54-5.75-2.981-7.347c-1.508-0.437-3.344-0.45-5.299-0.121c1.347,0.648,2.503,1.658,3.126,3.056
			c0.705,1.579-0.018,3.402-0.355,4.968c-1.058,4.914,3.146,6.773,6.18,9.727c2.006,1.951,3.599,4.567,2.03,7.324
			c-1.138,2-2.596,3.348-4.892,3.766c-2.196,0.399-4.879-0.564-6.966,0.22c-1.997,0.749-2.798,3.902-4.148,5.434
			c-1.563,1.768-3.668,3.462-6.073,3.87c-5.503,0.933-7.197-3.046-6.867-7.327c-0.483,0.955-0.747,2.031-0.567,3.404
			c0.514,3.936,3.866,8.898,8.372,8.05c4.389-0.827,5.619-6.676,9.588-8.345c4.66-1.959,9.56,2.744,13.718-1.247
			C107.632,195.718,109.051,188.941,106.886,184.244z"/>
		<path style="fill:#135AA6;" d="M273.12,97.448c-4.741-5.518-11.895-9.119-20.289-8.854c-6.131,0.195-14.476,0.729-19.602,4.492
			c-2.329,1.707-4.223,4.491-3.519,7.54c1.264,5.455,5.512,6.461-1.734,9.304c-4.704,1.845-10.52,1.006-13.718,5.629
			c-2.238,3.234-2.875,8.096-1.378,11.727c1.778,4.316,6.639,6.471,10.895,4.653c3.148-1.345,8.509-7.552,11.48-3.031
			c2.226,3.388,0.738,7.925,4.726,10.275c4.305,2.538,10.636-0.53,15.14-1.399c5.593-1.08,11.656-1.468,16.035-5.568
			C280.954,123.039,281.868,107.631,273.12,97.448z"/>
		<path style="fill:#135AA6;" d="M273.12,97.448c-2.714-3.157-6.221-5.684-10.295-7.221c3.92,3.463,7.657,7.232,10.491,11.646
			c2.844,4.43,3.904,9.151,1.18,13.973c-2.606,4.614-6.728,7.827-10.931,10.906c-3.981,2.916-8.332,6.229-13.213,7.424
			c-3.524,0.864-7.923,0.433-9.087-3.655c-0.647-2.272-0.455-4.691-1.103-6.955c-1.169-4.077-4.723-5.085-8.249-3.109
			c-3.994,2.239-7.741,5.886-12.479,6.463c-4.023,0.49-6.959-2.311-7.188-6.177c-0.359,2.239-0.181,4.572,0.632,6.543
			c1.778,4.316,6.639,6.471,10.895,4.653c3.148-1.345,8.509-7.552,11.48-3.031c2.226,3.388,0.738,7.925,4.726,10.275
			c4.305,2.538,10.636-0.53,15.14-1.399c5.593-1.08,11.656-1.468,16.035-5.568C280.954,123.039,281.868,107.631,273.12,97.448z"/>
		<path style="fill:#F8B545;" d="M150.639,205.503c-2.466-1.688-4.889-3.439-7.239-5.286c-5.046-3.965-9.466-8.798-16.323-5.598
			c-5.433,2.537-9.856,8.308-12.032,13.805c-2.207,5.574,2.006,10.127,0.336,15.365c-1.515,4.746-9.606,7.443-5.032,13.174
			c3.191,4,8.852,5.097,13.439,3.003c4.867-2.223,7.306-8.582,12.941-9.298c5.633-0.716,7.163,6.457,11.87,8.309
			c3.496,1.375,6.867,0.335,9.805-1.81c5.079-3.707,8.1-11.136,7.001-17.293c-0.99-5.543-5.561-8.339-9.946-11.17
			C153.841,207.656,152.231,206.593,150.639,205.503z"/>
		<path style="fill:#F8B545;" d="M165.45,219.874c-0.324-1.81-1.035-3.325-1.992-4.646c1.577,3.76,1.456,8.114-0.756,11.686
			c-2.337,3.768-6.907,7.053-11.469,5.303c-2.341-0.899-3.895-3.061-5.692-4.679c-2.835-2.553-6.382-3.909-10.152-2.601
			c-3.499,1.213-5.655,3.347-7.916,6.156c-1.488,1.851-3.09,3.744-5.283,4.787c-2.774,1.32-8.075,2.464-9.841-1.093
			c-2.468-4.967,3.828-6.908,5.947-10.434c2.21-3.676,0.953-6.888-1.365-10.139c-0.846-1.187-1.774-2.431-2.385-3.79
			c-0.721,4.696,2.344,8.768,0.877,13.366c-1.514,4.746-9.606,7.443-5.032,13.174c3.191,4,8.854,5.097,13.44,3.003
			c4.866-2.223,7.306-8.582,12.941-9.298c5.634-0.716,7.163,6.457,11.87,8.309c3.495,1.375,6.867,0.335,9.805-1.81
			C163.528,233.46,166.549,226.031,165.45,219.874z"/>
		<path style="fill:#6A0D81;" d="M165.706,145.699c-1.549,0.205-3.011,0.549-4.116,0.855c-2.393,0.662-5.09,1.842-7.62,1.74
			c-3.534-0.144-6.482-3.05-10.079-2.859c-4.785,0.254-9.339,7.046-9.306,11.525c0.034,4.391,4.871,6.779,2.47,11.383
			c-1.705,3.268-6.139,4.897-6.023,9.026c0.135,4.83,5.929,8.296,10.229,5.976c2.957-1.596,3.273-5.789,6.12-7.406
			c4.121-2.339,6.057,2.561,9.919,3.054c2.8,0.357,5.605-1.386,7.676-3.065c5.819-4.72,15.346-21.648,8.574-28.714
			C171.833,145.424,168.617,145.314,165.706,145.699z"/>
		<path style="opacity:0.4;fill:#6A0D81;" d="M173.549,147.214c-0.351-0.366-0.776-0.645-1.235-0.881
			c0.504,2.002,0.604,4.192,0.464,6.007c-0.515,6.707-3.129,14.81-8.942,18.808c-2.703,1.858-6.023,2.62-9.224,1.67
			c-2.342-0.695-5.124-2.129-7.607-2.136c-2.641-0.007-4.352,2.753-5.699,4.669c-1.86,2.645-5.774,7.822-9.219,4.299
			c-0.373-0.382-0.683-0.813-0.938-1.283c0.835,4.289,6.114,7.135,10.111,4.978c2.957-1.596,3.273-5.789,6.12-7.406
			c4.121-2.339,6.057,2.561,9.919,3.054c2.8,0.357,5.605-1.386,7.676-3.065C170.794,171.209,180.321,154.28,173.549,147.214z"/>
	</g>
	<g>
		<path style="fill:#96683E;" d="M108.24,139.093c-1.624-0.855-3.437-1.291-5.123-1.999c-2.046-0.86-3.396-2.516-4.839-4.094
			c-0.156-0.264-0.319-0.52-0.51-0.747c-0.745-0.885-1.881-0.129-2.564,0.398c-0.785,0.603-1.423,1.438-1.704,2.389
			c-0.222,0.752,0.176,1.301,0.603,1.846c1.142,1.966,0.284,4.059-0.398,6.089c-0.519,1.546-0.912,3.105-1.203,4.711
			c-0.524,2.913,0.372,6.125,1.887,8.609c1.677,2.748,5.557,3.515,8.505,3.858c1.806,0.212,3.793,0.08,5.426,0.992
			c1.898,1.061,2.951,3.706,2.105,5.707c-0.046,0.11-0.007,0.459,0.177,0.326c8.365-6.101,7.512-17.561,5.081-21.359
			C113.855,142.963,111.225,140.665,108.24,139.093z"/>
		<path style="fill:#96683E;" d="M108.24,139.093c-1.624-0.855-3.437-1.291-5.123-1.999c-2.046-0.86-3.396-2.516-4.839-4.094
			c-0.156-0.264-0.319-0.52-0.51-0.747c-0.745-0.885-1.881-0.129-2.564,0.398c-0.785,0.603-1.423,1.438-1.704,2.389
			c-0.222,0.752,0.176,1.301,0.603,1.846c1.142,1.966,0.284,4.059-0.398,6.089c-0.519,1.546-0.912,3.105-1.203,4.711
			c-0.197,1.096-0.193,2.233-0.031,3.359c-0.198-2.223,0.207-4.515,1.512-6.17c0.256-0.325,0.7-0.129,0.775,0.227
			c0.633,3.015,0.633,6.607,2.793,9.038c1.396,1.569,3.052,2.376,4.868,2.883c-4.739-2.994-6.993-8.665-5.935-14.5
			c0.061-0.339,0.582-0.538,0.781-0.189c1.187,2.079,2.576,3.85,4.21,5.351c-1.387-1.655-2.414-3.562-2.754-5.794
			c-0.056-0.358,0.318-0.526,0.607-0.443c5.805,1.702,12.31,6.323,14.252,12.316c1.106,3.414,0.408,6.824-0.551,10.195
			c-0.178,0.629-0.39,1.186-0.633,1.691c6.422-6.323,5.527-16.329,3.288-19.83C113.855,142.963,111.225,140.665,108.24,139.093z"/>
		<path style="fill:#DC985B;" d="M99.456,134.252C81.505,97.771,19.06,11.5,10.531,5.839c-8.63-5.727-5.336,4.487-5.336,4.487
			c18.787,46.769,80.778,117.738,89.173,127.556C96.448,137.723,98.183,136.128,99.456,134.252z"/>
		<path style="fill:#A6A6A6;" d="M76.951,117.266c8.571,10.39,15.078,17.881,17.418,20.616c2.079-0.159,3.815-1.753,5.087-3.63
			c-3.058-6.214-7.407-13.875-12.563-22.335C84.055,114.413,80.538,116.299,76.951,117.266z"/>
		<path style="fill:#BFBFBF;" d="M10.531,5.839C7.964,4.136,6.458,3.85,5.6,4.278c3.148,2.726,5.943,5.846,8.514,9.123
			c3.837,4.893,7.304,10.057,11.049,15.016c4.245,5.622,8.534,11.21,12.735,16.864C46.402,56.73,54.07,68.65,61.733,80.667
			c7.699,12.074,36.886,54.818,37.722,53.585C81.505,97.771,19.06,11.5,10.531,5.839z"/>
	</g>
</g>
</svg>
