<svg width="512" height="512" viewBox="0 0 512 512" fill="none" xmlns="http://www.w3.org/2000/svg">
<g clip-path="url(#clip0_1210_178)">
<path d="M107.157 139.282C107.157 96.048 142.205 61 185.438 61H226.615V432.212H185.438C142.205 432.212 107.157 397.164 107.157 353.931V139.282Z" fill="#3D3995"/>
<path d="M107.403 138.148C107.831 95.3641 142.725 61 185.511 61H351.571C380.787 61 404.471 84.6841 404.471 113.9C404.471 143.116 380.737 166.644 351.804 162.591C241.627 147.157 110.708 98.0496 108.369 166.8C106.933 209.013 107.009 177.488 107.403 138.148Z" fill="#635BFF"/>
<path d="M107.157 277.841C107.157 234.607 142.205 199.559 185.438 199.559H226.615V432.212H185.438C142.205 432.212 107.157 397.164 107.157 353.931V277.841Z" fill="#39358C"/>
<path d="M107.331 277.032C107.638 234.121 142.577 199.559 185.489 199.559H267.81C297.025 199.559 320.709 223.243 320.709 252.459C320.709 281.674 296.881 304.715 268.441 298.027C192.75 280.228 109.606 240.749 108.028 305.359C106.999 347.455 107.05 316.22 107.331 277.032Z" fill="#635BFF"/>
<path d="M107.246 373.852C107.674 416.636 142.569 451 185.355 451H351.414C380.63 451 404.314 427.316 404.314 398.1C404.314 368.884 380.58 345.356 351.647 349.409C241.47 364.843 110.552 413.95 108.213 345.2C106.777 302.987 106.852 334.512 107.246 373.852Z" fill="#DBDAEA"/>
</g>
<defs>
<clipPath id="clip0_1210_178">
<rect width="512" height="512" rx="256" fill="white"/>
</clipPath>
</defs>
</svg>
